<?xml version="1.0" encoding="UTF-8"?>
<svg xmlns="http://www.w3.org/2000/svg" width="495" height="320" viewBox="0 0 495 320">
  <defs>
    <linearGradient id="areaGrad" x1="0%" y1="0%" x2="0%" y2="100%">
      <stop offset="0%" style="stop-color:#58a6ff;stop-opacity:0.3" />
      <stop offset="100%" style="stop-color:#58a6ff;stop-opacity:0" />
    </linearGradient>
  </defs>

  <rect width="495" height="320" fill="#0d1117" rx="8"/>
  <text x="247" y="30" font-family="Segoe UI, system-ui, -apple-system, sans-serif" font-size="18" font-weight="600" fill="#c9d1d9" text-anchor="middle">コミット推移</text>
  <line x1="60" y1="60" x2="435" y2="60" stroke="#21262d" stroke-width="1"/>
  <text x="50" y="64" font-family="Segoe UI, system-ui, -apple-system, sans-serif" font-size="11" fill="#c9d1d9" text-anchor="end">20</text>
  <line x1="60" y1="100" x2="435" y2="100" stroke="#21262d" stroke-width="1"/>
  <text x="50" y="104" font-family="Segoe UI, system-ui, -apple-system, sans-serif" font-size="11" fill="#c9d1d9" text-anchor="end">16</text>
  <line x1="60" y1="140" x2="435" y2="140" stroke="#21262d" stroke-width="1"/>
  <text x="50" y="144" font-family="Segoe UI, system-ui, -apple-system, sans-serif" font-size="11" fill="#c9d1d9" text-anchor="end">12</text>
  <line x1="60" y1="180" x2="435" y2="180" stroke="#21262d" stroke-width="1"/>
  <text x="50" y="184" font-family="Segoe UI, system-ui, -apple-system, sans-serif" font-size="11" fill="#c9d1d9" text-anchor="end">8</text>
  <line x1="60" y1="220" x2="435" y2="220" stroke="#21262d" stroke-width="1"/>
  <text x="50" y="224" font-family="Segoe UI, system-ui, -apple-system, sans-serif" font-size="11" fill="#c9d1d9" text-anchor="end">4</text>
  <text x="50" y="264" font-family="Segoe UI, system-ui, -apple-system, sans-serif" font-size="11" fill="#c9d1d9" text-anchor="end">0</text>
  <path d="M 60 260 L 60.0 220.0 L 61.4 250.0 L 62.8 220.0 L 64.2 250.0 L 65.6 240.0 L 67.0 250.0 L 68.4 220.0 L 69.8 240.0 L 71.2 250.0 L 72.5 250.0 L 73.9 230.0 L 75.3 250.0 L 76.7 240.0 L 78.1 240.0 L 79.5 230.0 L 80.9 250.0 L 82.3 240.0 L 83.7 250.0 L 85.1 220.0 L 86.5 250.0 L 87.9 220.0 L 89.3 250.0 L 90.7 250.0 L 92.1 250.0 L 93.5 220.0 L 94.9 210.0 L 96.2 230.0 L 97.6 250.0 L 99.0 250.0 L 100.4 250.0 L 101.8 250.0 L 103.2 200.0 L 104.6 190.0 L 106.0 240.0 L 107.4 240.0 L 108.8 220.0 L 110.2 240.0 L 111.6 250.0 L 113.0 210.0 L 114.4 170.0 L 115.8 250.0 L 117.2 190.0 L 118.6 200.0 L 119.9 240.0 L 121.3 250.0 L 122.7 140.0 L 124.1 160.0 L 125.5 210.0 L 126.9 230.0 L 128.3 240.0 L 129.7 210.0 L 131.1 230.0 L 132.5 230.0 L 133.9 230.0 L 135.3 240.0 L 136.7 180.0 L 138.1 250.0 L 139.5 220.0 L 140.9 220.0 L 142.2 240.0 L 143.6 200.0 L 145.0 250.0 L 146.4 240.0 L 147.8 240.0 L 149.2 240.0 L 150.6 200.0 L 152.0 130.0 L 153.4 210.0 L 154.8 250.0 L 156.2 240.0 L 157.6 230.0 L 159.0 210.0 L 160.4 250.0 L 161.8 230.0 L 163.2 210.0 L 164.6 150.0 L 165.9 230.0 L 167.3 250.0 L 168.7 230.0 L 170.1 250.0 L 171.5 240.0 L 172.9 250.0 L 174.3 250.0 L 175.7 250.0 L 177.1 240.0 L 178.5 250.0 L 179.9 250.0 L 181.3 210.0 L 182.7 230.0 L 184.1 250.0 L 185.5 250.0 L 186.9 210.0 L 188.3 180.0 L 189.6 230.0 L 191.0 250.0 L 192.4 220.0 L 193.8 250.0 L 195.2 240.0 L 196.6 250.0 L 198.0 190.0 L 199.4 240.0 L 200.8 190.0 L 202.2 250.0 L 203.6 250.0 L 205.0 200.0 L 206.4 250.0 L 207.8 230.0 L 209.2 250.0 L 210.6 240.0 L 212.0 210.0 L 213.3 230.0 L 214.7 200.0 L 216.1 250.0 L 217.5 250.0 L 218.9 240.0 L 220.3 250.0 L 221.7 250.0 L 223.1 220.0 L 224.5 240.0 L 225.9 210.0 L 227.3 230.0 L 228.7 240.0 L 230.1 210.0 L 231.5 240.0 L 232.9 230.0 L 234.3 250.0 L 235.7 250.0 L 237.0 240.0 L 238.4 250.0 L 239.8 210.0 L 241.2 250.0 L 242.6 230.0 L 244.0 250.0 L 245.4 220.0 L 246.8 250.0 L 248.2 250.0 L 249.6 240.0 L 251.0 240.0 L 252.4 210.0 L 253.8 240.0 L 255.2 230.0 L 256.6 220.0 L 258.0 250.0 L 259.3 250.0 L 260.7 220.0 L 262.1 250.0 L 263.5 210.0 L 264.9 250.0 L 266.3 230.0 L 267.7 210.0 L 269.1 190.0 L 270.5 240.0 L 271.9 240.0 L 273.3 250.0 L 274.7 250.0 L 276.1 170.0 L 277.5 230.0 L 278.9 240.0 L 280.3 250.0 L 281.7 240.0 L 283.0 240.0 L 284.4 250.0 L 285.8 240.0 L 287.2 230.0 L 288.6 250.0 L 290.0 250.0 L 291.4 190.0 L 292.8 250.0 L 294.2 250.0 L 295.6 210.0 L 297.0 230.0 L 298.4 240.0 L 299.8 230.0 L 301.2 230.0 L 302.6 240.0 L 304.0 250.0 L 305.4 180.0 L 306.7 240.0 L 308.1 230.0 L 309.5 230.0 L 310.9 220.0 L 312.3 210.0 L 313.7 250.0 L 315.1 240.0 L 316.5 230.0 L 317.9 180.0 L 319.3 250.0 L 320.7 250.0 L 322.1 250.0 L 323.5 240.0 L 324.9 250.0 L 326.3 250.0 L 327.7 240.0 L 329.1 240.0 L 330.4 240.0 L 331.8 250.0 L 333.2 240.0 L 334.6 240.0 L 336.0 250.0 L 337.4 250.0 L 338.8 250.0 L 340.2 230.0 L 341.6 240.0 L 343.0 250.0 L 344.4 230.0 L 345.8 250.0 L 347.2 250.0 L 348.6 250.0 L 350.0 250.0 L 351.4 250.0 L 352.8 250.0 L 354.1 250.0 L 355.5 240.0 L 356.9 230.0 L 358.3 240.0 L 359.7 200.0 L 361.1 220.0 L 362.5 250.0 L 363.9 250.0 L 365.3 230.0 L 366.7 230.0 L 368.1 240.0 L 369.5 250.0 L 370.9 240.0 L 372.3 240.0 L 373.7 250.0 L 375.1 240.0 L 376.4 210.0 L 377.8 250.0 L 379.2 220.0 L 380.6 210.0 L 382.0 250.0 L 383.4 240.0 L 384.8 240.0 L 386.2 250.0 L 387.6 250.0 L 389.0 230.0 L 390.4 250.0 L 391.8 250.0 L 393.2 250.0 L 394.6 250.0 L 396.0 250.0 L 397.4 250.0 L 398.8 230.0 L 400.1 250.0 L 401.5 250.0 L 402.9 250.0 L 404.3 250.0 L 405.7 250.0 L 407.1 250.0 L 408.5 240.0 L 409.9 250.0 L 411.3 230.0 L 412.7 240.0 L 414.1 250.0 L 415.5 240.0 L 416.9 240.0 L 418.3 240.0 L 419.7 250.0 L 421.1 250.0 L 422.5 240.0 L 423.8 210.0 L 425.2 250.0 L 426.6 250.0 L 428.0 250.0 L 429.4 250.0 L 430.8 250.0 L 432.2 220.0 L 433.6 240.0 L 435.0 180.0 L 435 260 Z" fill="url(#areaGrad)" opacity="0.5"/>
  <path d="M 60.0 220.0 L 61.4 250.0 L 62.8 220.0 L 64.2 250.0 L 65.6 240.0 L 67.0 250.0 L 68.4 220.0 L 69.8 240.0 L 71.2 250.0 L 72.5 250.0 L 73.9 230.0 L 75.3 250.0 L 76.7 240.0 L 78.1 240.0 L 79.5 230.0 L 80.9 250.0 L 82.3 240.0 L 83.7 250.0 L 85.1 220.0 L 86.5 250.0 L 87.9 220.0 L 89.3 250.0 L 90.7 250.0 L 92.1 250.0 L 93.5 220.0 L 94.9 210.0 L 96.2 230.0 L 97.6 250.0 L 99.0 250.0 L 100.4 250.0 L 101.8 250.0 L 103.2 200.0 L 104.6 190.0 L 106.0 240.0 L 107.4 240.0 L 108.8 220.0 L 110.2 240.0 L 111.6 250.0 L 113.0 210.0 L 114.4 170.0 L 115.8 250.0 L 117.2 190.0 L 118.6 200.0 L 119.9 240.0 L 121.3 250.0 L 122.7 140.0 L 124.1 160.0 L 125.5 210.0 L 126.9 230.0 L 128.3 240.0 L 129.7 210.0 L 131.1 230.0 L 132.5 230.0 L 133.9 230.0 L 135.3 240.0 L 136.7 180.0 L 138.1 250.0 L 139.5 220.0 L 140.9 220.0 L 142.2 240.0 L 143.6 200.0 L 145.0 250.0 L 146.4 240.0 L 147.8 240.0 L 149.2 240.0 L 150.6 200.0 L 152.0 130.0 L 153.4 210.0 L 154.8 250.0 L 156.2 240.0 L 157.6 230.0 L 159.0 210.0 L 160.4 250.0 L 161.8 230.0 L 163.2 210.0 L 164.6 150.0 L 165.9 230.0 L 167.3 250.0 L 168.7 230.0 L 170.1 250.0 L 171.5 240.0 L 172.9 250.0 L 174.3 250.0 L 175.7 250.0 L 177.1 240.0 L 178.5 250.0 L 179.9 250.0 L 181.3 210.0 L 182.7 230.0 L 184.1 250.0 L 185.5 250.0 L 186.9 210.0 L 188.3 180.0 L 189.6 230.0 L 191.0 250.0 L 192.4 220.0 L 193.8 250.0 L 195.2 240.0 L 196.6 250.0 L 198.0 190.0 L 199.4 240.0 L 200.8 190.0 L 202.2 250.0 L 203.6 250.0 L 205.0 200.0 L 206.4 250.0 L 207.8 230.0 L 209.2 250.0 L 210.6 240.0 L 212.0 210.0 L 213.3 230.0 L 214.7 200.0 L 216.1 250.0 L 217.5 250.0 L 218.9 240.0 L 220.3 250.0 L 221.7 250.0 L 223.1 220.0 L 224.5 240.0 L 225.9 210.0 L 227.3 230.0 L 228.7 240.0 L 230.1 210.0 L 231.5 240.0 L 232.9 230.0 L 234.3 250.0 L 235.7 250.0 L 237.0 240.0 L 238.4 250.0 L 239.8 210.0 L 241.2 250.0 L 242.6 230.0 L 244.0 250.0 L 245.4 220.0 L 246.8 250.0 L 248.2 250.0 L 249.6 240.0 L 251.0 240.0 L 252.4 210.0 L 253.8 240.0 L 255.2 230.0 L 256.6 220.0 L 258.0 250.0 L 259.3 250.0 L 260.7 220.0 L 262.1 250.0 L 263.5 210.0 L 264.9 250.0 L 266.3 230.0 L 267.7 210.0 L 269.1 190.0 L 270.5 240.0 L 271.9 240.0 L 273.3 250.0 L 274.7 250.0 L 276.1 170.0 L 277.5 230.0 L 278.9 240.0 L 280.3 250.0 L 281.7 240.0 L 283.0 240.0 L 284.4 250.0 L 285.8 240.0 L 287.2 230.0 L 288.6 250.0 L 290.0 250.0 L 291.4 190.0 L 292.8 250.0 L 294.2 250.0 L 295.6 210.0 L 297.0 230.0 L 298.4 240.0 L 299.8 230.0 L 301.2 230.0 L 302.6 240.0 L 304.0 250.0 L 305.4 180.0 L 306.7 240.0 L 308.1 230.0 L 309.5 230.0 L 310.9 220.0 L 312.3 210.0 L 313.7 250.0 L 315.1 240.0 L 316.5 230.0 L 317.9 180.0 L 319.3 250.0 L 320.7 250.0 L 322.1 250.0 L 323.5 240.0 L 324.9 250.0 L 326.3 250.0 L 327.7 240.0 L 329.1 240.0 L 330.4 240.0 L 331.8 250.0 L 333.2 240.0 L 334.6 240.0 L 336.0 250.0 L 337.4 250.0 L 338.8 250.0 L 340.2 230.0 L 341.6 240.0 L 343.0 250.0 L 344.4 230.0 L 345.8 250.0 L 347.2 250.0 L 348.6 250.0 L 350.0 250.0 L 351.4 250.0 L 352.8 250.0 L 354.1 250.0 L 355.5 240.0 L 356.9 230.0 L 358.3 240.0 L 359.7 200.0 L 361.1 220.0 L 362.5 250.0 L 363.9 250.0 L 365.3 230.0 L 366.7 230.0 L 368.1 240.0 L 369.5 250.0 L 370.9 240.0 L 372.3 240.0 L 373.7 250.0 L 375.1 240.0 L 376.4 210.0 L 377.8 250.0 L 379.2 220.0 L 380.6 210.0 L 382.0 250.0 L 383.4 240.0 L 384.8 240.0 L 386.2 250.0 L 387.6 250.0 L 389.0 230.0 L 390.4 250.0 L 391.8 250.0 L 393.2 250.0 L 394.6 250.0 L 396.0 250.0 L 397.4 250.0 L 398.8 230.0 L 400.1 250.0 L 401.5 250.0 L 402.9 250.0 L 404.3 250.0 L 405.7 250.0 L 407.1 250.0 L 408.5 240.0 L 409.9 250.0 L 411.3 230.0 L 412.7 240.0 L 414.1 250.0 L 415.5 240.0 L 416.9 240.0 L 418.3 240.0 L 419.7 250.0 L 421.1 250.0 L 422.5 240.0 L 423.8 210.0 L 425.2 250.0 L 426.6 250.0 L 428.0 250.0 L 429.4 250.0 L 430.8 250.0 L 432.2 220.0 L 433.6 240.0 L 435.0 180.0 " fill="none" stroke="#58a6ff" stroke-width="2" stroke-linecap="round" stroke-linejoin="round"/>
  <circle cx="60.0" cy="220.0" r="3" fill="#58a6ff" stroke="#0d1117" stroke-width="1"/>
  <circle cx="61.4" cy="250.0" r="3" fill="#58a6ff" stroke="#0d1117" stroke-width="1"/>
  <circle cx="62.8" cy="220.0" r="3" fill="#58a6ff" stroke="#0d1117" stroke-width="1"/>
  <circle cx="64.2" cy="250.0" r="3" fill="#58a6ff" stroke="#0d1117" stroke-width="1"/>
  <circle cx="65.6" cy="240.0" r="3" fill="#58a6ff" stroke="#0d1117" stroke-width="1"/>
  <circle cx="67.0" cy="250.0" r="3" fill="#58a6ff" stroke="#0d1117" stroke-width="1"/>
  <circle cx="68.4" cy="220.0" r="3" fill="#58a6ff" stroke="#0d1117" stroke-width="1"/>
  <circle cx="69.8" cy="240.0" r="3" fill="#58a6ff" stroke="#0d1117" stroke-width="1"/>
  <circle cx="71.2" cy="250.0" r="3" fill="#58a6ff" stroke="#0d1117" stroke-width="1"/>
  <circle cx="72.5" cy="250.0" r="3" fill="#58a6ff" stroke="#0d1117" stroke-width="1"/>
  <circle cx="73.9" cy="230.0" r="3" fill="#58a6ff" stroke="#0d1117" stroke-width="1"/>
  <circle cx="75.3" cy="250.0" r="3" fill="#58a6ff" stroke="#0d1117" stroke-width="1"/>
  <circle cx="76.7" cy="240.0" r="3" fill="#58a6ff" stroke="#0d1117" stroke-width="1"/>
  <circle cx="78.1" cy="240.0" r="3" fill="#58a6ff" stroke="#0d1117" stroke-width="1"/>
  <circle cx="79.5" cy="230.0" r="3" fill="#58a6ff" stroke="#0d1117" stroke-width="1"/>
  <circle cx="80.9" cy="250.0" r="3" fill="#58a6ff" stroke="#0d1117" stroke-width="1"/>
  <circle cx="82.3" cy="240.0" r="3" fill="#58a6ff" stroke="#0d1117" stroke-width="1"/>
  <circle cx="83.7" cy="250.0" r="3" fill="#58a6ff" stroke="#0d1117" stroke-width="1"/>
  <circle cx="85.1" cy="220.0" r="3" fill="#58a6ff" stroke="#0d1117" stroke-width="1"/>
  <circle cx="86.5" cy="250.0" r="3" fill="#58a6ff" stroke="#0d1117" stroke-width="1"/>
  <circle cx="87.9" cy="220.0" r="3" fill="#58a6ff" stroke="#0d1117" stroke-width="1"/>
  <circle cx="89.3" cy="250.0" r="3" fill="#58a6ff" stroke="#0d1117" stroke-width="1"/>
  <circle cx="90.7" cy="250.0" r="3" fill="#58a6ff" stroke="#0d1117" stroke-width="1"/>
  <circle cx="92.1" cy="250.0" r="3" fill="#58a6ff" stroke="#0d1117" stroke-width="1"/>
  <circle cx="93.5" cy="220.0" r="3" fill="#58a6ff" stroke="#0d1117" stroke-width="1"/>
  <circle cx="94.9" cy="210.0" r="3" fill="#58a6ff" stroke="#0d1117" stroke-width="1"/>
  <circle cx="96.2" cy="230.0" r="3" fill="#58a6ff" stroke="#0d1117" stroke-width="1"/>
  <circle cx="97.6" cy="250.0" r="3" fill="#58a6ff" stroke="#0d1117" stroke-width="1"/>
  <circle cx="99.0" cy="250.0" r="3" fill="#58a6ff" stroke="#0d1117" stroke-width="1"/>
  <circle cx="100.4" cy="250.0" r="3" fill="#58a6ff" stroke="#0d1117" stroke-width="1"/>
  <circle cx="101.8" cy="250.0" r="3" fill="#58a6ff" stroke="#0d1117" stroke-width="1"/>
  <circle cx="103.2" cy="200.0" r="3" fill="#58a6ff" stroke="#0d1117" stroke-width="1"/>
  <circle cx="104.6" cy="190.0" r="3" fill="#58a6ff" stroke="#0d1117" stroke-width="1"/>
  <circle cx="106.0" cy="240.0" r="3" fill="#58a6ff" stroke="#0d1117" stroke-width="1"/>
  <circle cx="107.4" cy="240.0" r="3" fill="#58a6ff" stroke="#0d1117" stroke-width="1"/>
  <circle cx="108.8" cy="220.0" r="3" fill="#58a6ff" stroke="#0d1117" stroke-width="1"/>
  <circle cx="110.2" cy="240.0" r="3" fill="#58a6ff" stroke="#0d1117" stroke-width="1"/>
  <circle cx="111.6" cy="250.0" r="3" fill="#58a6ff" stroke="#0d1117" stroke-width="1"/>
  <circle cx="113.0" cy="210.0" r="3" fill="#58a6ff" stroke="#0d1117" stroke-width="1"/>
  <circle cx="114.4" cy="170.0" r="3" fill="#58a6ff" stroke="#0d1117" stroke-width="1"/>
  <circle cx="115.8" cy="250.0" r="3" fill="#58a6ff" stroke="#0d1117" stroke-width="1"/>
  <circle cx="117.2" cy="190.0" r="3" fill="#58a6ff" stroke="#0d1117" stroke-width="1"/>
  <circle cx="118.6" cy="200.0" r="3" fill="#58a6ff" stroke="#0d1117" stroke-width="1"/>
  <circle cx="119.9" cy="240.0" r="3" fill="#58a6ff" stroke="#0d1117" stroke-width="1"/>
  <circle cx="121.3" cy="250.0" r="3" fill="#58a6ff" stroke="#0d1117" stroke-width="1"/>
  <circle cx="122.7" cy="140.0" r="3" fill="#58a6ff" stroke="#0d1117" stroke-width="1"/>
  <circle cx="124.1" cy="160.0" r="3" fill="#58a6ff" stroke="#0d1117" stroke-width="1"/>
  <circle cx="125.5" cy="210.0" r="3" fill="#58a6ff" stroke="#0d1117" stroke-width="1"/>
  <circle cx="126.9" cy="230.0" r="3" fill="#58a6ff" stroke="#0d1117" stroke-width="1"/>
  <circle cx="128.3" cy="240.0" r="3" fill="#58a6ff" stroke="#0d1117" stroke-width="1"/>
  <circle cx="129.7" cy="210.0" r="3" fill="#58a6ff" stroke="#0d1117" stroke-width="1"/>
  <circle cx="131.1" cy="230.0" r="3" fill="#58a6ff" stroke="#0d1117" stroke-width="1"/>
  <circle cx="132.5" cy="230.0" r="3" fill="#58a6ff" stroke="#0d1117" stroke-width="1"/>
  <circle cx="133.9" cy="230.0" r="3" fill="#58a6ff" stroke="#0d1117" stroke-width="1"/>
  <circle cx="135.3" cy="240.0" r="3" fill="#58a6ff" stroke="#0d1117" stroke-width="1"/>
  <circle cx="136.7" cy="180.0" r="3" fill="#58a6ff" stroke="#0d1117" stroke-width="1"/>
  <circle cx="138.1" cy="250.0" r="3" fill="#58a6ff" stroke="#0d1117" stroke-width="1"/>
  <circle cx="139.5" cy="220.0" r="3" fill="#58a6ff" stroke="#0d1117" stroke-width="1"/>
  <circle cx="140.9" cy="220.0" r="3" fill="#58a6ff" stroke="#0d1117" stroke-width="1"/>
  <circle cx="142.2" cy="240.0" r="3" fill="#58a6ff" stroke="#0d1117" stroke-width="1"/>
  <circle cx="143.6" cy="200.0" r="3" fill="#58a6ff" stroke="#0d1117" stroke-width="1"/>
  <circle cx="145.0" cy="250.0" r="3" fill="#58a6ff" stroke="#0d1117" stroke-width="1"/>
  <circle cx="146.4" cy="240.0" r="3" fill="#58a6ff" stroke="#0d1117" stroke-width="1"/>
  <circle cx="147.8" cy="240.0" r="3" fill="#58a6ff" stroke="#0d1117" stroke-width="1"/>
  <circle cx="149.2" cy="240.0" r="3" fill="#58a6ff" stroke="#0d1117" stroke-width="1"/>
  <circle cx="150.6" cy="200.0" r="3" fill="#58a6ff" stroke="#0d1117" stroke-width="1"/>
  <circle cx="152.0" cy="130.0" r="3" fill="#58a6ff" stroke="#0d1117" stroke-width="1"/>
  <circle cx="153.4" cy="210.0" r="3" fill="#58a6ff" stroke="#0d1117" stroke-width="1"/>
  <circle cx="154.8" cy="250.0" r="3" fill="#58a6ff" stroke="#0d1117" stroke-width="1"/>
  <circle cx="156.2" cy="240.0" r="3" fill="#58a6ff" stroke="#0d1117" stroke-width="1"/>
  <circle cx="157.6" cy="230.0" r="3" fill="#58a6ff" stroke="#0d1117" stroke-width="1"/>
  <circle cx="159.0" cy="210.0" r="3" fill="#58a6ff" stroke="#0d1117" stroke-width="1"/>
  <circle cx="160.4" cy="250.0" r="3" fill="#58a6ff" stroke="#0d1117" stroke-width="1"/>
  <circle cx="161.8" cy="230.0" r="3" fill="#58a6ff" stroke="#0d1117" stroke-width="1"/>
  <circle cx="163.2" cy="210.0" r="3" fill="#58a6ff" stroke="#0d1117" stroke-width="1"/>
  <circle cx="164.6" cy="150.0" r="3" fill="#58a6ff" stroke="#0d1117" stroke-width="1"/>
  <circle cx="165.9" cy="230.0" r="3" fill="#58a6ff" stroke="#0d1117" stroke-width="1"/>
  <circle cx="167.3" cy="250.0" r="3" fill="#58a6ff" stroke="#0d1117" stroke-width="1"/>
  <circle cx="168.7" cy="230.0" r="3" fill="#58a6ff" stroke="#0d1117" stroke-width="1"/>
  <circle cx="170.1" cy="250.0" r="3" fill="#58a6ff" stroke="#0d1117" stroke-width="1"/>
  <circle cx="171.5" cy="240.0" r="3" fill="#58a6ff" stroke="#0d1117" stroke-width="1"/>
  <circle cx="172.9" cy="250.0" r="3" fill="#58a6ff" stroke="#0d1117" stroke-width="1"/>
  <circle cx="174.3" cy="250.0" r="3" fill="#58a6ff" stroke="#0d1117" stroke-width="1"/>
  <circle cx="175.7" cy="250.0" r="3" fill="#58a6ff" stroke="#0d1117" stroke-width="1"/>
  <circle cx="177.1" cy="240.0" r="3" fill="#58a6ff" stroke="#0d1117" stroke-width="1"/>
  <circle cx="178.5" cy="250.0" r="3" fill="#58a6ff" stroke="#0d1117" stroke-width="1"/>
  <circle cx="179.9" cy="250.0" r="3" fill="#58a6ff" stroke="#0d1117" stroke-width="1"/>
  <circle cx="181.3" cy="210.0" r="3" fill="#58a6ff" stroke="#0d1117" stroke-width="1"/>
  <circle cx="182.7" cy="230.0" r="3" fill="#58a6ff" stroke="#0d1117" stroke-width="1"/>
  <circle cx="184.1" cy="250.0" r="3" fill="#58a6ff" stroke="#0d1117" stroke-width="1"/>
  <circle cx="185.5" cy="250.0" r="3" fill="#58a6ff" stroke="#0d1117" stroke-width="1"/>
  <circle cx="186.9" cy="210.0" r="3" fill="#58a6ff" stroke="#0d1117" stroke-width="1"/>
  <circle cx="188.3" cy="180.0" r="3" fill="#58a6ff" stroke="#0d1117" stroke-width="1"/>
  <circle cx="189.6" cy="230.0" r="3" fill="#58a6ff" stroke="#0d1117" stroke-width="1"/>
  <circle cx="191.0" cy="250.0" r="3" fill="#58a6ff" stroke="#0d1117" stroke-width="1"/>
  <circle cx="192.4" cy="220.0" r="3" fill="#58a6ff" stroke="#0d1117" stroke-width="1"/>
  <circle cx="193.8" cy="250.0" r="3" fill="#58a6ff" stroke="#0d1117" stroke-width="1"/>
  <circle cx="195.2" cy="240.0" r="3" fill="#58a6ff" stroke="#0d1117" stroke-width="1"/>
  <circle cx="196.6" cy="250.0" r="3" fill="#58a6ff" stroke="#0d1117" stroke-width="1"/>
  <circle cx="198.0" cy="190.0" r="3" fill="#58a6ff" stroke="#0d1117" stroke-width="1"/>
  <circle cx="199.4" cy="240.0" r="3" fill="#58a6ff" stroke="#0d1117" stroke-width="1"/>
  <circle cx="200.8" cy="190.0" r="3" fill="#58a6ff" stroke="#0d1117" stroke-width="1"/>
  <circle cx="202.2" cy="250.0" r="3" fill="#58a6ff" stroke="#0d1117" stroke-width="1"/>
  <circle cx="203.6" cy="250.0" r="3" fill="#58a6ff" stroke="#0d1117" stroke-width="1"/>
  <circle cx="205.0" cy="200.0" r="3" fill="#58a6ff" stroke="#0d1117" stroke-width="1"/>
  <circle cx="206.4" cy="250.0" r="3" fill="#58a6ff" stroke="#0d1117" stroke-width="1"/>
  <circle cx="207.8" cy="230.0" r="3" fill="#58a6ff" stroke="#0d1117" stroke-width="1"/>
  <circle cx="209.2" cy="250.0" r="3" fill="#58a6ff" stroke="#0d1117" stroke-width="1"/>
  <circle cx="210.6" cy="240.0" r="3" fill="#58a6ff" stroke="#0d1117" stroke-width="1"/>
  <circle cx="212.0" cy="210.0" r="3" fill="#58a6ff" stroke="#0d1117" stroke-width="1"/>
  <circle cx="213.3" cy="230.0" r="3" fill="#58a6ff" stroke="#0d1117" stroke-width="1"/>
  <circle cx="214.7" cy="200.0" r="3" fill="#58a6ff" stroke="#0d1117" stroke-width="1"/>
  <circle cx="216.1" cy="250.0" r="3" fill="#58a6ff" stroke="#0d1117" stroke-width="1"/>
  <circle cx="217.5" cy="250.0" r="3" fill="#58a6ff" stroke="#0d1117" stroke-width="1"/>
  <circle cx="218.9" cy="240.0" r="3" fill="#58a6ff" stroke="#0d1117" stroke-width="1"/>
  <circle cx="220.3" cy="250.0" r="3" fill="#58a6ff" stroke="#0d1117" stroke-width="1"/>
  <circle cx="221.7" cy="250.0" r="3" fill="#58a6ff" stroke="#0d1117" stroke-width="1"/>
  <circle cx="223.1" cy="220.0" r="3" fill="#58a6ff" stroke="#0d1117" stroke-width="1"/>
  <circle cx="224.5" cy="240.0" r="3" fill="#58a6ff" stroke="#0d1117" stroke-width="1"/>
  <circle cx="225.9" cy="210.0" r="3" fill="#58a6ff" stroke="#0d1117" stroke-width="1"/>
  <circle cx="227.3" cy="230.0" r="3" fill="#58a6ff" stroke="#0d1117" stroke-width="1"/>
  <circle cx="228.7" cy="240.0" r="3" fill="#58a6ff" stroke="#0d1117" stroke-width="1"/>
  <circle cx="230.1" cy="210.0" r="3" fill="#58a6ff" stroke="#0d1117" stroke-width="1"/>
  <circle cx="231.5" cy="240.0" r="3" fill="#58a6ff" stroke="#0d1117" stroke-width="1"/>
  <circle cx="232.9" cy="230.0" r="3" fill="#58a6ff" stroke="#0d1117" stroke-width="1"/>
  <circle cx="234.3" cy="250.0" r="3" fill="#58a6ff" stroke="#0d1117" stroke-width="1"/>
  <circle cx="235.7" cy="250.0" r="3" fill="#58a6ff" stroke="#0d1117" stroke-width="1"/>
  <circle cx="237.0" cy="240.0" r="3" fill="#58a6ff" stroke="#0d1117" stroke-width="1"/>
  <circle cx="238.4" cy="250.0" r="3" fill="#58a6ff" stroke="#0d1117" stroke-width="1"/>
  <circle cx="239.8" cy="210.0" r="3" fill="#58a6ff" stroke="#0d1117" stroke-width="1"/>
  <circle cx="241.2" cy="250.0" r="3" fill="#58a6ff" stroke="#0d1117" stroke-width="1"/>
  <circle cx="242.6" cy="230.0" r="3" fill="#58a6ff" stroke="#0d1117" stroke-width="1"/>
  <circle cx="244.0" cy="250.0" r="3" fill="#58a6ff" stroke="#0d1117" stroke-width="1"/>
  <circle cx="245.4" cy="220.0" r="3" fill="#58a6ff" stroke="#0d1117" stroke-width="1"/>
  <circle cx="246.8" cy="250.0" r="3" fill="#58a6ff" stroke="#0d1117" stroke-width="1"/>
  <circle cx="248.2" cy="250.0" r="3" fill="#58a6ff" stroke="#0d1117" stroke-width="1"/>
  <circle cx="249.6" cy="240.0" r="3" fill="#58a6ff" stroke="#0d1117" stroke-width="1"/>
  <circle cx="251.0" cy="240.0" r="3" fill="#58a6ff" stroke="#0d1117" stroke-width="1"/>
  <circle cx="252.4" cy="210.0" r="3" fill="#58a6ff" stroke="#0d1117" stroke-width="1"/>
  <circle cx="253.8" cy="240.0" r="3" fill="#58a6ff" stroke="#0d1117" stroke-width="1"/>
  <circle cx="255.2" cy="230.0" r="3" fill="#58a6ff" stroke="#0d1117" stroke-width="1"/>
  <circle cx="256.6" cy="220.0" r="3" fill="#58a6ff" stroke="#0d1117" stroke-width="1"/>
  <circle cx="258.0" cy="250.0" r="3" fill="#58a6ff" stroke="#0d1117" stroke-width="1"/>
  <circle cx="259.3" cy="250.0" r="3" fill="#58a6ff" stroke="#0d1117" stroke-width="1"/>
  <circle cx="260.7" cy="220.0" r="3" fill="#58a6ff" stroke="#0d1117" stroke-width="1"/>
  <circle cx="262.1" cy="250.0" r="3" fill="#58a6ff" stroke="#0d1117" stroke-width="1"/>
  <circle cx="263.5" cy="210.0" r="3" fill="#58a6ff" stroke="#0d1117" stroke-width="1"/>
  <circle cx="264.9" cy="250.0" r="3" fill="#58a6ff" stroke="#0d1117" stroke-width="1"/>
  <circle cx="266.3" cy="230.0" r="3" fill="#58a6ff" stroke="#0d1117" stroke-width="1"/>
  <circle cx="267.7" cy="210.0" r="3" fill="#58a6ff" stroke="#0d1117" stroke-width="1"/>
  <circle cx="269.1" cy="190.0" r="3" fill="#58a6ff" stroke="#0d1117" stroke-width="1"/>
  <circle cx="270.5" cy="240.0" r="3" fill="#58a6ff" stroke="#0d1117" stroke-width="1"/>
  <circle cx="271.9" cy="240.0" r="3" fill="#58a6ff" stroke="#0d1117" stroke-width="1"/>
  <circle cx="273.3" cy="250.0" r="3" fill="#58a6ff" stroke="#0d1117" stroke-width="1"/>
  <circle cx="274.7" cy="250.0" r="3" fill="#58a6ff" stroke="#0d1117" stroke-width="1"/>
  <circle cx="276.1" cy="170.0" r="3" fill="#58a6ff" stroke="#0d1117" stroke-width="1"/>
  <circle cx="277.5" cy="230.0" r="3" fill="#58a6ff" stroke="#0d1117" stroke-width="1"/>
  <circle cx="278.9" cy="240.0" r="3" fill="#58a6ff" stroke="#0d1117" stroke-width="1"/>
  <circle cx="280.3" cy="250.0" r="3" fill="#58a6ff" stroke="#0d1117" stroke-width="1"/>
  <circle cx="281.7" cy="240.0" r="3" fill="#58a6ff" stroke="#0d1117" stroke-width="1"/>
  <circle cx="283.0" cy="240.0" r="3" fill="#58a6ff" stroke="#0d1117" stroke-width="1"/>
  <circle cx="284.4" cy="250.0" r="3" fill="#58a6ff" stroke="#0d1117" stroke-width="1"/>
  <circle cx="285.8" cy="240.0" r="3" fill="#58a6ff" stroke="#0d1117" stroke-width="1"/>
  <circle cx="287.2" cy="230.0" r="3" fill="#58a6ff" stroke="#0d1117" stroke-width="1"/>
  <circle cx="288.6" cy="250.0" r="3" fill="#58a6ff" stroke="#0d1117" stroke-width="1"/>
  <circle cx="290.0" cy="250.0" r="3" fill="#58a6ff" stroke="#0d1117" stroke-width="1"/>
  <circle cx="291.4" cy="190.0" r="3" fill="#58a6ff" stroke="#0d1117" stroke-width="1"/>
  <circle cx="292.8" cy="250.0" r="3" fill="#58a6ff" stroke="#0d1117" stroke-width="1"/>
  <circle cx="294.2" cy="250.0" r="3" fill="#58a6ff" stroke="#0d1117" stroke-width="1"/>
  <circle cx="295.6" cy="210.0" r="3" fill="#58a6ff" stroke="#0d1117" stroke-width="1"/>
  <circle cx="297.0" cy="230.0" r="3" fill="#58a6ff" stroke="#0d1117" stroke-width="1"/>
  <circle cx="298.4" cy="240.0" r="3" fill="#58a6ff" stroke="#0d1117" stroke-width="1"/>
  <circle cx="299.8" cy="230.0" r="3" fill="#58a6ff" stroke="#0d1117" stroke-width="1"/>
  <circle cx="301.2" cy="230.0" r="3" fill="#58a6ff" stroke="#0d1117" stroke-width="1"/>
  <circle cx="302.6" cy="240.0" r="3" fill="#58a6ff" stroke="#0d1117" stroke-width="1"/>
  <circle cx="304.0" cy="250.0" r="3" fill="#58a6ff" stroke="#0d1117" stroke-width="1"/>
  <circle cx="305.4" cy="180.0" r="3" fill="#58a6ff" stroke="#0d1117" stroke-width="1"/>
  <circle cx="306.7" cy="240.0" r="3" fill="#58a6ff" stroke="#0d1117" stroke-width="1"/>
  <circle cx="308.1" cy="230.0" r="3" fill="#58a6ff" stroke="#0d1117" stroke-width="1"/>
  <circle cx="309.5" cy="230.0" r="3" fill="#58a6ff" stroke="#0d1117" stroke-width="1"/>
  <circle cx="310.9" cy="220.0" r="3" fill="#58a6ff" stroke="#0d1117" stroke-width="1"/>
  <circle cx="312.3" cy="210.0" r="3" fill="#58a6ff" stroke="#0d1117" stroke-width="1"/>
  <circle cx="313.7" cy="250.0" r="3" fill="#58a6ff" stroke="#0d1117" stroke-width="1"/>
  <circle cx="315.1" cy="240.0" r="3" fill="#58a6ff" stroke="#0d1117" stroke-width="1"/>
  <circle cx="316.5" cy="230.0" r="3" fill="#58a6ff" stroke="#0d1117" stroke-width="1"/>
  <circle cx="317.9" cy="180.0" r="3" fill="#58a6ff" stroke="#0d1117" stroke-width="1"/>
  <circle cx="319.3" cy="250.0" r="3" fill="#58a6ff" stroke="#0d1117" stroke-width="1"/>
  <circle cx="320.7" cy="250.0" r="3" fill="#58a6ff" stroke="#0d1117" stroke-width="1"/>
  <circle cx="322.1" cy="250.0" r="3" fill="#58a6ff" stroke="#0d1117" stroke-width="1"/>
  <circle cx="323.5" cy="240.0" r="3" fill="#58a6ff" stroke="#0d1117" stroke-width="1"/>
  <circle cx="324.9" cy="250.0" r="3" fill="#58a6ff" stroke="#0d1117" stroke-width="1"/>
  <circle cx="326.3" cy="250.0" r="3" fill="#58a6ff" stroke="#0d1117" stroke-width="1"/>
  <circle cx="327.7" cy="240.0" r="3" fill="#58a6ff" stroke="#0d1117" stroke-width="1"/>
  <circle cx="329.1" cy="240.0" r="3" fill="#58a6ff" stroke="#0d1117" stroke-width="1"/>
  <circle cx="330.4" cy="240.0" r="3" fill="#58a6ff" stroke="#0d1117" stroke-width="1"/>
  <circle cx="331.8" cy="250.0" r="3" fill="#58a6ff" stroke="#0d1117" stroke-width="1"/>
  <circle cx="333.2" cy="240.0" r="3" fill="#58a6ff" stroke="#0d1117" stroke-width="1"/>
  <circle cx="334.6" cy="240.0" r="3" fill="#58a6ff" stroke="#0d1117" stroke-width="1"/>
  <circle cx="336.0" cy="250.0" r="3" fill="#58a6ff" stroke="#0d1117" stroke-width="1"/>
  <circle cx="337.4" cy="250.0" r="3" fill="#58a6ff" stroke="#0d1117" stroke-width="1"/>
  <circle cx="338.8" cy="250.0" r="3" fill="#58a6ff" stroke="#0d1117" stroke-width="1"/>
  <circle cx="340.2" cy="230.0" r="3" fill="#58a6ff" stroke="#0d1117" stroke-width="1"/>
  <circle cx="341.6" cy="240.0" r="3" fill="#58a6ff" stroke="#0d1117" stroke-width="1"/>
  <circle cx="343.0" cy="250.0" r="3" fill="#58a6ff" stroke="#0d1117" stroke-width="1"/>
  <circle cx="344.4" cy="230.0" r="3" fill="#58a6ff" stroke="#0d1117" stroke-width="1"/>
  <circle cx="345.8" cy="250.0" r="3" fill="#58a6ff" stroke="#0d1117" stroke-width="1"/>
  <circle cx="347.2" cy="250.0" r="3" fill="#58a6ff" stroke="#0d1117" stroke-width="1"/>
  <circle cx="348.6" cy="250.0" r="3" fill="#58a6ff" stroke="#0d1117" stroke-width="1"/>
  <circle cx="350.0" cy="250.0" r="3" fill="#58a6ff" stroke="#0d1117" stroke-width="1"/>
  <circle cx="351.4" cy="250.0" r="3" fill="#58a6ff" stroke="#0d1117" stroke-width="1"/>
  <circle cx="352.8" cy="250.0" r="3" fill="#58a6ff" stroke="#0d1117" stroke-width="1"/>
  <circle cx="354.1" cy="250.0" r="3" fill="#58a6ff" stroke="#0d1117" stroke-width="1"/>
  <circle cx="355.5" cy="240.0" r="3" fill="#58a6ff" stroke="#0d1117" stroke-width="1"/>
  <circle cx="356.9" cy="230.0" r="3" fill="#58a6ff" stroke="#0d1117" stroke-width="1"/>
  <circle cx="358.3" cy="240.0" r="3" fill="#58a6ff" stroke="#0d1117" stroke-width="1"/>
  <circle cx="359.7" cy="200.0" r="3" fill="#58a6ff" stroke="#0d1117" stroke-width="1"/>
  <circle cx="361.1" cy="220.0" r="3" fill="#58a6ff" stroke="#0d1117" stroke-width="1"/>
  <circle cx="362.5" cy="250.0" r="3" fill="#58a6ff" stroke="#0d1117" stroke-width="1"/>
  <circle cx="363.9" cy="250.0" r="3" fill="#58a6ff" stroke="#0d1117" stroke-width="1"/>
  <circle cx="365.3" cy="230.0" r="3" fill="#58a6ff" stroke="#0d1117" stroke-width="1"/>
  <circle cx="366.7" cy="230.0" r="3" fill="#58a6ff" stroke="#0d1117" stroke-width="1"/>
  <circle cx="368.1" cy="240.0" r="3" fill="#58a6ff" stroke="#0d1117" stroke-width="1"/>
  <circle cx="369.5" cy="250.0" r="3" fill="#58a6ff" stroke="#0d1117" stroke-width="1"/>
  <circle cx="370.9" cy="240.0" r="3" fill="#58a6ff" stroke="#0d1117" stroke-width="1"/>
  <circle cx="372.3" cy="240.0" r="3" fill="#58a6ff" stroke="#0d1117" stroke-width="1"/>
  <circle cx="373.7" cy="250.0" r="3" fill="#58a6ff" stroke="#0d1117" stroke-width="1"/>
  <circle cx="375.1" cy="240.0" r="3" fill="#58a6ff" stroke="#0d1117" stroke-width="1"/>
  <circle cx="376.4" cy="210.0" r="3" fill="#58a6ff" stroke="#0d1117" stroke-width="1"/>
  <circle cx="377.8" cy="250.0" r="3" fill="#58a6ff" stroke="#0d1117" stroke-width="1"/>
  <circle cx="379.2" cy="220.0" r="3" fill="#58a6ff" stroke="#0d1117" stroke-width="1"/>
  <circle cx="380.6" cy="210.0" r="3" fill="#58a6ff" stroke="#0d1117" stroke-width="1"/>
  <circle cx="382.0" cy="250.0" r="3" fill="#58a6ff" stroke="#0d1117" stroke-width="1"/>
  <circle cx="383.4" cy="240.0" r="3" fill="#58a6ff" stroke="#0d1117" stroke-width="1"/>
  <circle cx="384.8" cy="240.0" r="3" fill="#58a6ff" stroke="#0d1117" stroke-width="1"/>
  <circle cx="386.2" cy="250.0" r="3" fill="#58a6ff" stroke="#0d1117" stroke-width="1"/>
  <circle cx="387.6" cy="250.0" r="3" fill="#58a6ff" stroke="#0d1117" stroke-width="1"/>
  <circle cx="389.0" cy="230.0" r="3" fill="#58a6ff" stroke="#0d1117" stroke-width="1"/>
  <circle cx="390.4" cy="250.0" r="3" fill="#58a6ff" stroke="#0d1117" stroke-width="1"/>
  <circle cx="391.8" cy="250.0" r="3" fill="#58a6ff" stroke="#0d1117" stroke-width="1"/>
  <circle cx="393.2" cy="250.0" r="3" fill="#58a6ff" stroke="#0d1117" stroke-width="1"/>
  <circle cx="394.6" cy="250.0" r="3" fill="#58a6ff" stroke="#0d1117" stroke-width="1"/>
  <circle cx="396.0" cy="250.0" r="3" fill="#58a6ff" stroke="#0d1117" stroke-width="1"/>
  <circle cx="397.4" cy="250.0" r="3" fill="#58a6ff" stroke="#0d1117" stroke-width="1"/>
  <circle cx="398.8" cy="230.0" r="3" fill="#58a6ff" stroke="#0d1117" stroke-width="1"/>
  <circle cx="400.1" cy="250.0" r="3" fill="#58a6ff" stroke="#0d1117" stroke-width="1"/>
  <circle cx="401.5" cy="250.0" r="3" fill="#58a6ff" stroke="#0d1117" stroke-width="1"/>
  <circle cx="402.9" cy="250.0" r="3" fill="#58a6ff" stroke="#0d1117" stroke-width="1"/>
  <circle cx="404.3" cy="250.0" r="3" fill="#58a6ff" stroke="#0d1117" stroke-width="1"/>
  <circle cx="405.7" cy="250.0" r="3" fill="#58a6ff" stroke="#0d1117" stroke-width="1"/>
  <circle cx="407.1" cy="250.0" r="3" fill="#58a6ff" stroke="#0d1117" stroke-width="1"/>
  <circle cx="408.5" cy="240.0" r="3" fill="#58a6ff" stroke="#0d1117" stroke-width="1"/>
  <circle cx="409.9" cy="250.0" r="3" fill="#58a6ff" stroke="#0d1117" stroke-width="1"/>
  <circle cx="411.3" cy="230.0" r="3" fill="#58a6ff" stroke="#0d1117" stroke-width="1"/>
  <circle cx="412.7" cy="240.0" r="3" fill="#58a6ff" stroke="#0d1117" stroke-width="1"/>
  <circle cx="414.1" cy="250.0" r="3" fill="#58a6ff" stroke="#0d1117" stroke-width="1"/>
  <circle cx="415.5" cy="240.0" r="3" fill="#58a6ff" stroke="#0d1117" stroke-width="1"/>
  <circle cx="416.9" cy="240.0" r="3" fill="#58a6ff" stroke="#0d1117" stroke-width="1"/>
  <circle cx="418.3" cy="240.0" r="3" fill="#58a6ff" stroke="#0d1117" stroke-width="1"/>
  <circle cx="419.7" cy="250.0" r="3" fill="#58a6ff" stroke="#0d1117" stroke-width="1"/>
  <circle cx="421.1" cy="250.0" r="3" fill="#58a6ff" stroke="#0d1117" stroke-width="1"/>
  <circle cx="422.5" cy="240.0" r="3" fill="#58a6ff" stroke="#0d1117" stroke-width="1"/>
  <circle cx="423.8" cy="210.0" r="3" fill="#58a6ff" stroke="#0d1117" stroke-width="1"/>
  <circle cx="425.2" cy="250.0" r="3" fill="#58a6ff" stroke="#0d1117" stroke-width="1"/>
  <circle cx="426.6" cy="250.0" r="3" fill="#58a6ff" stroke="#0d1117" stroke-width="1"/>
  <circle cx="428.0" cy="250.0" r="3" fill="#58a6ff" stroke="#0d1117" stroke-width="1"/>
  <circle cx="429.4" cy="250.0" r="3" fill="#58a6ff" stroke="#0d1117" stroke-width="1"/>
  <circle cx="430.8" cy="250.0" r="3" fill="#58a6ff" stroke="#0d1117" stroke-width="1"/>
  <circle cx="432.2" cy="220.0" r="3" fill="#58a6ff" stroke="#0d1117" stroke-width="1"/>
  <circle cx="433.6" cy="240.0" r="3" fill="#58a6ff" stroke="#0d1117" stroke-width="1"/>
  <circle cx="435.0" cy="180.0" r="3" fill="#58a6ff" stroke="#0d1117" stroke-width="1"/>
  <text x="60.0" y="280" font-family="Segoe UI, system-ui, -apple-system, sans-serif" font-size="10" fill="#c9d1d9" text-anchor="middle">01/09</text>
  <text x="122.7" y="280" font-family="Segoe UI, system-ui, -apple-system, sans-serif" font-size="10" fill="#c9d1d9" text-anchor="middle">02/28</text>
  <text x="185.5" y="280" font-family="Segoe UI, system-ui, -apple-system, sans-serif" font-size="10" fill="#c9d1d9" text-anchor="middle">08/25</text>
  <text x="248.2" y="280" font-family="Segoe UI, system-ui, -apple-system, sans-serif" font-size="10" fill="#c9d1d9" text-anchor="middle">05/22</text>
  <text x="310.9" y="280" font-family="Segoe UI, system-ui, -apple-system, sans-serif" font-size="10" fill="#c9d1d9" text-anchor="middle">07/03</text>
  <text x="373.7" y="280" font-family="Segoe UI, system-ui, -apple-system, sans-serif" font-size="10" fill="#c9d1d9" text-anchor="middle">01/19</text>
</svg>