<?xml version="1.0" encoding="UTF-8"?>
<svg xmlns="http://www.w3.org/2000/svg" width="495" height="320" viewBox="0 0 495 320">
  <defs>
    <linearGradient id="barGrad" x1="0%" y1="0%" x2="0%" y2="100%">
      <stop offset="0%" style="stop-color:#58a6ff;stop-opacity:1" />
      <stop offset="50%" style="stop-color:#7c3aed;stop-opacity:0.9" />
      <stop offset="100%" style="stop-color:#1f6feb;stop-opacity:0.8" />
    </linearGradient>
    <filter id="barGlow">
      <feGaussianBlur stdDeviation="2" result="coloredBlur"/>
      <feMerge>
        <feMergeNode in="coloredBlur"/>
        <feMergeNode in="SourceGraphic"/>
      </feMerge>
    </filter>
  </defs>

  <rect width="495" height="320" fill="#0d1117" rx="10" stroke="#30363d" stroke-width="1"/>
  <text x="247" y="32" font-family="Segoe UI, system-ui, -apple-system, sans-serif" font-size="20" font-weight="700" fill="#58a6ff" text-anchor="middle">📈 Commit History</text>
  <line x1="60" y1="60" x2="435" y2="60" stroke="#21262d" stroke-width="1"/>
  <text x="50" y="64" font-family="Segoe UI, system-ui, -apple-system, sans-serif" font-size="11" fill="#c9d1d9" text-anchor="end">10</text>
  <line x1="60" y1="100" x2="435" y2="100" stroke="#21262d" stroke-width="1"/>
  <text x="50" y="104" font-family="Segoe UI, system-ui, -apple-system, sans-serif" font-size="11" fill="#c9d1d9" text-anchor="end">8</text>
  <line x1="60" y1="140" x2="435" y2="140" stroke="#21262d" stroke-width="1"/>
  <text x="50" y="144" font-family="Segoe UI, system-ui, -apple-system, sans-serif" font-size="11" fill="#c9d1d9" text-anchor="end">6</text>
  <line x1="60" y1="180" x2="435" y2="180" stroke="#21262d" stroke-width="1"/>
  <text x="50" y="184" font-family="Segoe UI, system-ui, -apple-system, sans-serif" font-size="11" fill="#c9d1d9" text-anchor="end">4</text>
  <line x1="60" y1="220" x2="435" y2="220" stroke="#21262d" stroke-width="1"/>
  <text x="50" y="224" font-family="Segoe UI, system-ui, -apple-system, sans-serif" font-size="11" fill="#c9d1d9" text-anchor="end">2</text>
  <text x="50" y="264" font-family="Segoe UI, system-ui, -apple-system, sans-serif" font-size="11" fill="#c9d1d9" text-anchor="end">0</text>
  <rect x="62.1" y="220.0" width="6.2" height="40.0" fill="url(#barGrad)" rx="4" filter="url(#barGlow)" opacity="0.9"/>
  <rect x="62.1" y="220.0" width="6.2" height="3" fill="#79c0ff" rx="1" opacity="0.6"/>
  <rect x="72.5" y="180.0" width="6.2" height="80.0" fill="url(#barGrad)" rx="4" filter="url(#barGlow)" opacity="0.9"/>
  <rect x="72.5" y="180.0" width="6.2" height="3" fill="#79c0ff" rx="1" opacity="0.6"/>
  <rect x="82.9" y="240.0" width="6.2" height="20.0" fill="url(#barGrad)" rx="4" filter="url(#barGlow)" opacity="0.9"/>
  <rect x="82.9" y="240.0" width="6.2" height="3" fill="#79c0ff" rx="1" opacity="0.6"/>
  <rect x="93.3" y="240.0" width="6.2" height="20.0" fill="url(#barGrad)" rx="4" filter="url(#barGlow)" opacity="0.9"/>
  <rect x="93.3" y="240.0" width="6.2" height="3" fill="#79c0ff" rx="1" opacity="0.6"/>
  <rect x="103.7" y="200.0" width="6.2" height="60.0" fill="url(#barGrad)" rx="4" filter="url(#barGlow)" opacity="0.9"/>
  <rect x="103.7" y="200.0" width="6.2" height="3" fill="#79c0ff" rx="1" opacity="0.6"/>
  <rect x="114.2" y="240.0" width="6.2" height="20.0" fill="url(#barGrad)" rx="4" filter="url(#barGlow)" opacity="0.9"/>
  <rect x="114.2" y="240.0" width="6.2" height="3" fill="#79c0ff" rx="1" opacity="0.6"/>
  <rect x="124.6" y="220.0" width="6.2" height="40.0" fill="url(#barGrad)" rx="4" filter="url(#barGlow)" opacity="0.9"/>
  <rect x="124.6" y="220.0" width="6.2" height="3" fill="#79c0ff" rx="1" opacity="0.6"/>
  <rect x="135.0" y="180.0" width="6.2" height="80.0" fill="url(#barGrad)" rx="4" filter="url(#barGlow)" opacity="0.9"/>
  <rect x="135.0" y="180.0" width="6.2" height="3" fill="#79c0ff" rx="1" opacity="0.6"/>
  <rect x="145.4" y="240.0" width="6.2" height="20.0" fill="url(#barGrad)" rx="4" filter="url(#barGlow)" opacity="0.9"/>
  <rect x="145.4" y="240.0" width="6.2" height="3" fill="#79c0ff" rx="1" opacity="0.6"/>
  <rect x="155.8" y="240.0" width="6.2" height="20.0" fill="url(#barGrad)" rx="4" filter="url(#barGlow)" opacity="0.9"/>
  <rect x="155.8" y="240.0" width="6.2" height="3" fill="#79c0ff" rx="1" opacity="0.6"/>
  <rect x="166.2" y="240.0" width="6.2" height="20.0" fill="url(#barGrad)" rx="4" filter="url(#barGlow)" opacity="0.9"/>
  <rect x="166.2" y="240.0" width="6.2" height="3" fill="#79c0ff" rx="1" opacity="0.6"/>
  <rect x="176.7" y="160.0" width="6.2" height="100.0" fill="url(#barGrad)" rx="4" filter="url(#barGlow)" opacity="0.9"/>
  <rect x="176.7" y="160.0" width="6.2" height="3" fill="#79c0ff" rx="1" opacity="0.6"/>
  <rect x="187.1" y="160.0" width="6.2" height="100.0" fill="url(#barGrad)" rx="4" filter="url(#barGlow)" opacity="0.9"/>
  <rect x="187.1" y="160.0" width="6.2" height="3" fill="#79c0ff" rx="1" opacity="0.6"/>
  <rect x="197.5" y="160.0" width="6.2" height="100.0" fill="url(#barGrad)" rx="4" filter="url(#barGlow)" opacity="0.9"/>
  <rect x="197.5" y="160.0" width="6.2" height="3" fill="#79c0ff" rx="1" opacity="0.6"/>
  <rect x="207.9" y="220.0" width="6.2" height="40.0" fill="url(#barGrad)" rx="4" filter="url(#barGlow)" opacity="0.9"/>
  <rect x="207.9" y="220.0" width="6.2" height="3" fill="#79c0ff" rx="1" opacity="0.6"/>
  <rect x="218.3" y="240.0" width="6.2" height="20.0" fill="url(#barGrad)" rx="4" filter="url(#barGlow)" opacity="0.9"/>
  <rect x="218.3" y="240.0" width="6.2" height="3" fill="#79c0ff" rx="1" opacity="0.6"/>
  <rect x="228.8" y="240.0" width="6.2" height="20.0" fill="url(#barGrad)" rx="4" filter="url(#barGlow)" opacity="0.9"/>
  <rect x="228.8" y="240.0" width="6.2" height="3" fill="#79c0ff" rx="1" opacity="0.6"/>
  <rect x="239.2" y="240.0" width="6.2" height="20.0" fill="url(#barGrad)" rx="4" filter="url(#barGlow)" opacity="0.9"/>
  <rect x="239.2" y="240.0" width="6.2" height="3" fill="#79c0ff" rx="1" opacity="0.6"/>
  <rect x="249.6" y="240.0" width="6.2" height="20.0" fill="url(#barGrad)" rx="4" filter="url(#barGlow)" opacity="0.9"/>
  <rect x="249.6" y="240.0" width="6.2" height="3" fill="#79c0ff" rx="1" opacity="0.6"/>
  <rect x="260.0" y="160.0" width="6.2" height="100.0" fill="url(#barGrad)" rx="4" filter="url(#barGlow)" opacity="0.9"/>
  <rect x="260.0" y="160.0" width="6.2" height="3" fill="#79c0ff" rx="1" opacity="0.6"/>
  <rect x="270.4" y="240.0" width="6.2" height="20.0" fill="url(#barGrad)" rx="4" filter="url(#barGlow)" opacity="0.9"/>
  <rect x="270.4" y="240.0" width="6.2" height="3" fill="#79c0ff" rx="1" opacity="0.6"/>
  <rect x="280.8" y="240.0" width="6.2" height="20.0" fill="url(#barGrad)" rx="4" filter="url(#barGlow)" opacity="0.9"/>
  <rect x="280.8" y="240.0" width="6.2" height="3" fill="#79c0ff" rx="1" opacity="0.6"/>
  <rect x="291.2" y="200.0" width="6.2" height="60.0" fill="url(#barGrad)" rx="4" filter="url(#barGlow)" opacity="0.9"/>
  <rect x="291.2" y="200.0" width="6.2" height="3" fill="#79c0ff" rx="1" opacity="0.6"/>
  <rect x="301.7" y="240.0" width="6.2" height="20.0" fill="url(#barGrad)" rx="4" filter="url(#barGlow)" opacity="0.9"/>
  <rect x="301.7" y="240.0" width="6.2" height="3" fill="#79c0ff" rx="1" opacity="0.6"/>
  <rect x="312.1" y="240.0" width="6.2" height="20.0" fill="url(#barGrad)" rx="4" filter="url(#barGlow)" opacity="0.9"/>
  <rect x="312.1" y="240.0" width="6.2" height="3" fill="#79c0ff" rx="1" opacity="0.6"/>
  <rect x="322.5" y="240.0" width="6.2" height="20.0" fill="url(#barGrad)" rx="4" filter="url(#barGlow)" opacity="0.9"/>
  <rect x="322.5" y="240.0" width="6.2" height="3" fill="#79c0ff" rx="1" opacity="0.6"/>
  <rect x="332.9" y="180.0" width="6.2" height="80.0" fill="url(#barGrad)" rx="4" filter="url(#barGlow)" opacity="0.9"/>
  <rect x="332.9" y="180.0" width="6.2" height="3" fill="#79c0ff" rx="1" opacity="0.6"/>
  <rect x="343.3" y="240.0" width="6.2" height="20.0" fill="url(#barGrad)" rx="4" filter="url(#barGlow)" opacity="0.9"/>
  <rect x="343.3" y="240.0" width="6.2" height="3" fill="#79c0ff" rx="1" opacity="0.6"/>
  <rect x="353.7" y="220.0" width="6.2" height="40.0" fill="url(#barGrad)" rx="4" filter="url(#barGlow)" opacity="0.9"/>
  <rect x="353.7" y="220.0" width="6.2" height="3" fill="#79c0ff" rx="1" opacity="0.6"/>
  <rect x="364.2" y="200.0" width="6.2" height="60.0" fill="url(#barGrad)" rx="4" filter="url(#barGlow)" opacity="0.9"/>
  <rect x="364.2" y="200.0" width="6.2" height="3" fill="#79c0ff" rx="1" opacity="0.6"/>
  <rect x="374.6" y="220.0" width="6.2" height="40.0" fill="url(#barGrad)" rx="4" filter="url(#barGlow)" opacity="0.9"/>
  <rect x="374.6" y="220.0" width="6.2" height="3" fill="#79c0ff" rx="1" opacity="0.6"/>
  <rect x="385.0" y="240.0" width="6.2" height="20.0" fill="url(#barGrad)" rx="4" filter="url(#barGlow)" opacity="0.9"/>
  <rect x="385.0" y="240.0" width="6.2" height="3" fill="#79c0ff" rx="1" opacity="0.6"/>
  <rect x="395.4" y="240.0" width="6.2" height="20.0" fill="url(#barGrad)" rx="4" filter="url(#barGlow)" opacity="0.9"/>
  <rect x="395.4" y="240.0" width="6.2" height="3" fill="#79c0ff" rx="1" opacity="0.6"/>
  <rect x="405.8" y="240.0" width="6.2" height="20.0" fill="url(#barGrad)" rx="4" filter="url(#barGlow)" opacity="0.9"/>
  <rect x="405.8" y="240.0" width="6.2" height="3" fill="#79c0ff" rx="1" opacity="0.6"/>
  <rect x="416.2" y="240.0" width="6.2" height="20.0" fill="url(#barGrad)" rx="4" filter="url(#barGlow)" opacity="0.9"/>
  <rect x="416.2" y="240.0" width="6.2" height="3" fill="#79c0ff" rx="1" opacity="0.6"/>
  <rect x="426.7" y="240.0" width="6.2" height="20.0" fill="url(#barGrad)" rx="4" filter="url(#barGlow)" opacity="0.9"/>
  <rect x="426.7" y="240.0" width="6.2" height="3" fill="#79c0ff" rx="1" opacity="0.6"/>
  <text x="65.2" y="280" font-family="Segoe UI, system-ui, -apple-system, sans-serif" font-size="10" fill="#c9d1d9" text-anchor="middle">02/25</text>
  <text x="127.7" y="280" font-family="Segoe UI, system-ui, -apple-system, sans-serif" font-size="10" fill="#c9d1d9" text-anchor="middle">06/04</text>
  <text x="190.2" y="280" font-family="Segoe UI, system-ui, -apple-system, sans-serif" font-size="10" fill="#c9d1d9" text-anchor="middle">05/03</text>
  <text x="252.7" y="280" font-family="Segoe UI, system-ui, -apple-system, sans-serif" font-size="10" fill="#c9d1d9" text-anchor="middle">02/22</text>
  <text x="315.2" y="280" font-family="Segoe UI, system-ui, -apple-system, sans-serif" font-size="10" fill="#c9d1d9" text-anchor="middle">09/30</text>
  <text x="377.7" y="280" font-family="Segoe UI, system-ui, -apple-system, sans-serif" font-size="10" fill="#c9d1d9" text-anchor="middle">12/26</text>
</svg>