<?xml version="1.0" encoding="UTF-8"?>
<svg xmlns="http://www.w3.org/2000/svg" width="495" height="200" viewBox="0 0 495 200">
  <defs>
    <linearGradient id="timeGrad" x1="0%" y1="0%" x2="0%" y2="100%">
      <stop offset="0%" style="stop-color:#58a6ff;stop-opacity:1" />
      <stop offset="50%" style="stop-color:#7c3aed;stop-opacity:1" />
      <stop offset="100%" style="stop-color:#1f6feb;stop-opacity:0.8" />
    </linearGradient>
    <filter id="barGlow">
      <feGaussianBlur stdDeviation="2" result="coloredBlur"/>
      <feMerge>
        <feMergeNode in="coloredBlur"/>
        <feMergeNode in="SourceGraphic"/>
      </feMerge>
    </filter>
  </defs>

  <rect width="495" height="200" fill="#0d1117" rx="10" stroke="#30363d" stroke-width="1"/>
  <text x="247" y="37" font-family="Segoe UI, system-ui, -apple-system, sans-serif" font-size="20" font-weight="700" fill="#58a6ff" text-anchor="middle">🕐 Commit Time Distribution (UTC)</text>
  <rect x="21.0" y="153.3" width="17.0" height="26.7" fill="#79c0ff" rx="3" filter="url(#barGlow)" opacity="0.9"/>
  <text x="29.5" y="195" font-family="Segoe UI, system-ui, -apple-system, sans-serif" font-size="10" fill="#c9d1d9" text-anchor="middle">00:00</text>
  <text x="29.5" y="150.3" font-family="Segoe UI, system-ui, -apple-system, sans-serif" font-size="8" fill="#c9d1d9" text-anchor="middle" opacity="0.8">8</text>
  <rect x="40.0" y="80.0" width="17.0" height="100.0" fill="#1f6feb" rx="3" filter="url(#barGlow)" opacity="0.9"/>
  <text x="48.4" y="77.0" font-family="Segoe UI, system-ui, -apple-system, sans-serif" font-size="8" fill="#c9d1d9" text-anchor="middle" opacity="0.8">30</text>
  <rect x="58.9" y="123.3" width="17.0" height="56.7" fill="#58a6ff" rx="3" filter="url(#barGlow)" opacity="0.9"/>
  <text x="67.4" y="120.3" font-family="Segoe UI, system-ui, -apple-system, sans-serif" font-size="8" fill="#c9d1d9" text-anchor="middle" opacity="0.8">17</text>
  <rect x="77.9" y="143.3" width="17.0" height="36.7" fill="#79c0ff" rx="3" filter="url(#barGlow)" opacity="0.9"/>
  <text x="86.4" y="140.3" font-family="Segoe UI, system-ui, -apple-system, sans-serif" font-size="8" fill="#c9d1d9" text-anchor="middle" opacity="0.8">11</text>
  <rect x="96.8" y="175.0" width="17.0" height="5.0" fill="#b1ddff" rx="3" filter="url(#barGlow)" opacity="0.9"/>
  <text x="105.3" y="172.0" font-family="Segoe UI, system-ui, -apple-system, sans-serif" font-size="8" fill="#c9d1d9" text-anchor="middle" opacity="0.8">1</text>
  <rect x="115.8" y="156.7" width="17.0" height="23.3" fill="#79c0ff" rx="3" filter="url(#barGlow)" opacity="0.9"/>
  <text x="124.3" y="153.7" font-family="Segoe UI, system-ui, -apple-system, sans-serif" font-size="8" fill="#c9d1d9" text-anchor="middle" opacity="0.8">7</text>
  <rect x="134.8" y="106.7" width="17.0" height="73.3" fill="#388bfd" rx="3" filter="url(#barGlow)" opacity="0.9"/>
  <text x="143.2" y="195" font-family="Segoe UI, system-ui, -apple-system, sans-serif" font-size="10" fill="#c9d1d9" text-anchor="middle">06:00</text>
  <text x="143.2" y="103.7" font-family="Segoe UI, system-ui, -apple-system, sans-serif" font-size="8" fill="#c9d1d9" text-anchor="middle" opacity="0.8">22</text>
  <rect x="153.7" y="150.0" width="17.0" height="30.0" fill="#79c0ff" rx="3" filter="url(#barGlow)" opacity="0.9"/>
  <text x="162.2" y="147.0" font-family="Segoe UI, system-ui, -apple-system, sans-serif" font-size="8" fill="#c9d1d9" text-anchor="middle" opacity="0.8">9</text>
  <rect x="172.7" y="180.0" width="17.0" height="0.0" fill="#21262d" rx="3" filter="url(#barGlow)" opacity="0.9"/>
  <rect x="191.6" y="163.3" width="17.0" height="16.7" fill="#b1ddff" rx="3" filter="url(#barGlow)" opacity="0.9"/>
  <text x="200.1" y="160.3" font-family="Segoe UI, system-ui, -apple-system, sans-serif" font-size="8" fill="#c9d1d9" text-anchor="middle" opacity="0.8">5</text>
  <rect x="210.6" y="146.7" width="17.0" height="33.3" fill="#79c0ff" rx="3" filter="url(#barGlow)" opacity="0.9"/>
  <text x="219.1" y="143.7" font-family="Segoe UI, system-ui, -apple-system, sans-serif" font-size="8" fill="#c9d1d9" text-anchor="middle" opacity="0.8">10</text>
  <rect x="229.5" y="163.3" width="17.0" height="16.7" fill="#b1ddff" rx="3" filter="url(#barGlow)" opacity="0.9"/>
  <text x="238.0" y="160.3" font-family="Segoe UI, system-ui, -apple-system, sans-serif" font-size="8" fill="#c9d1d9" text-anchor="middle" opacity="0.8">5</text>
  <rect x="248.5" y="140.0" width="17.0" height="40.0" fill="#79c0ff" rx="3" filter="url(#barGlow)" opacity="0.9"/>
  <text x="257.0" y="195" font-family="Segoe UI, system-ui, -apple-system, sans-serif" font-size="10" fill="#c9d1d9" text-anchor="middle">12:00</text>
  <text x="257.0" y="137.0" font-family="Segoe UI, system-ui, -apple-system, sans-serif" font-size="8" fill="#c9d1d9" text-anchor="middle" opacity="0.8">12</text>
  <rect x="267.5" y="150.0" width="17.0" height="30.0" fill="#79c0ff" rx="3" filter="url(#barGlow)" opacity="0.9"/>
  <text x="275.9" y="147.0" font-family="Segoe UI, system-ui, -apple-system, sans-serif" font-size="8" fill="#c9d1d9" text-anchor="middle" opacity="0.8">9</text>
  <rect x="286.4" y="173.3" width="17.0" height="6.7" fill="#b1ddff" rx="3" filter="url(#barGlow)" opacity="0.9"/>
  <text x="294.9" y="170.3" font-family="Segoe UI, system-ui, -apple-system, sans-serif" font-size="8" fill="#c9d1d9" text-anchor="middle" opacity="0.8">2</text>
  <rect x="305.4" y="170.0" width="17.0" height="10.0" fill="#b1ddff" rx="3" filter="url(#barGlow)" opacity="0.9"/>
  <text x="313.9" y="167.0" font-family="Segoe UI, system-ui, -apple-system, sans-serif" font-size="8" fill="#c9d1d9" text-anchor="middle" opacity="0.8">3</text>
  <rect x="324.3" y="173.3" width="17.0" height="6.7" fill="#b1ddff" rx="3" filter="url(#barGlow)" opacity="0.9"/>
  <text x="332.8" y="170.3" font-family="Segoe UI, system-ui, -apple-system, sans-serif" font-size="8" fill="#c9d1d9" text-anchor="middle" opacity="0.8">2</text>
  <rect x="343.3" y="163.3" width="17.0" height="16.7" fill="#b1ddff" rx="3" filter="url(#barGlow)" opacity="0.9"/>
  <text x="351.8" y="160.3" font-family="Segoe UI, system-ui, -apple-system, sans-serif" font-size="8" fill="#c9d1d9" text-anchor="middle" opacity="0.8">5</text>
  <rect x="362.2" y="180.0" width="17.0" height="0.0" fill="#21262d" rx="3" filter="url(#barGlow)" opacity="0.9"/>
  <text x="370.7" y="195" font-family="Segoe UI, system-ui, -apple-system, sans-serif" font-size="10" fill="#c9d1d9" text-anchor="middle">18:00</text>
  <rect x="381.2" y="180.0" width="17.0" height="0.0" fill="#21262d" rx="3" filter="url(#barGlow)" opacity="0.9"/>
  <rect x="400.2" y="180.0" width="17.0" height="0.0" fill="#21262d" rx="3" filter="url(#barGlow)" opacity="0.9"/>
  <rect x="419.1" y="175.0" width="17.0" height="5.0" fill="#b1ddff" rx="3" filter="url(#barGlow)" opacity="0.9"/>
  <text x="427.6" y="172.0" font-family="Segoe UI, system-ui, -apple-system, sans-serif" font-size="8" fill="#c9d1d9" text-anchor="middle" opacity="0.8">1</text>
  <rect x="438.1" y="173.3" width="17.0" height="6.7" fill="#b1ddff" rx="3" filter="url(#barGlow)" opacity="0.9"/>
  <text x="446.6" y="170.3" font-family="Segoe UI, system-ui, -apple-system, sans-serif" font-size="8" fill="#c9d1d9" text-anchor="middle" opacity="0.8">2</text>
  <rect x="457.0" y="180.0" width="17.0" height="0.0" fill="#21262d" rx="3" filter="url(#barGlow)" opacity="0.9"/>
  <text x="20" y="55" font-family="Segoe UI, system-ui, -apple-system, sans-serif" font-size="11" fill="#c9d1d9">High</text>
  <rect x="60" y="47" width="20" height="8" fill="#1f6feb" rx="1"/>
  <rect x="85" y="47" width="20" height="8" fill="#388bfd" rx="1"/>
  <rect x="110" y="47" width="20" height="8" fill="#58a6ff" rx="1"/>
  <rect x="135" y="47" width="20" height="8" fill="#79c0ff" rx="1"/>
  <rect x="160" y="47" width="20" height="8" fill="#b1ddff" rx="1"/>
  <text x="185" y="55" font-family="Segoe UI, system-ui, -apple-system, sans-serif" font-size="11" fill="#c9d1d9">Low</text>
</svg>