<?xml version="1.0" encoding="UTF-8"?>
<svg xmlns="http://www.w3.org/2000/svg" width="495" height="320" viewBox="0 0 495 320">
  <defs>
    <filter id="shadow">
      <feGaussianBlur in="SourceAlpha" stdDeviation="2"/>
      <feOffset dx="0" dy="2" result="offsetblur"/>
      <feComponentTransfer>
        <feFuncA type="linear" slope="0.3"/>
      </feComponentTransfer>
      <feMerge>
        <feMergeNode/>
        <feMergeNode in="SourceGraphic"/>
      </feMerge>
    </filter>
  </defs>

  <rect width="495" height="320" fill="#0d1117" rx="10" stroke="#30363d" stroke-width="1"/>
  <text x="247" y="32" font-family="Segoe UI, system-ui, -apple-system, sans-serif" font-size="20" font-weight="700" fill="#58a6ff" text-anchor="middle" filter="url(#shadow)">🗂️ Language Distribution</text>
  <path d="M 173.2 170.0 L 173.2 80.0 A 90.0 90.0 0 0 1 222.9 245.1 Z" fill="#58a6ff" stroke="#0d1117" stroke-width="2" opacity="0.9" filter="url(#shadow)"/>
  <path d="M 173.2 170.0 L 222.9 245.1 A 90.0 90.0 0 0 1 83.3 166.1 Z" fill="#7c3aed" stroke="#0d1117" stroke-width="2" opacity="0.9" filter="url(#shadow)"/>
  <path d="M 173.2 170.0 L 83.3 166.1 A 90.0 90.0 0 0 1 89.6 136.7 Z" fill="#1f6feb" stroke="#0d1117" stroke-width="2" opacity="0.9" filter="url(#shadow)"/>
  <path d="M 173.2 170.0 L 89.6 136.7 A 90.0 90.0 0 0 1 98.2 120.3 Z" fill="#56d364" stroke="#0d1117" stroke-width="2" opacity="0.9" filter="url(#shadow)"/>
  <path d="M 173.2 170.0 L 98.2 120.3 A 90.0 90.0 0 0 1 109.2 106.7 Z" fill="#ff7b72" stroke="#0d1117" stroke-width="2" opacity="0.9" filter="url(#shadow)"/>
  <path d="M 173.2 170.0 L 109.2 106.7 A 90.0 90.0 0 0 1 116.8 99.9 Z" fill="#a5a5ff" stroke="#0d1117" stroke-width="2" opacity="0.9" filter="url(#shadow)"/>
  <path d="M 173.2 170.0 L 116.8 99.9 A 90.0 90.0 0 0 1 124.6 94.3 Z" fill="#f85149" stroke="#0d1117" stroke-width="2" opacity="0.9" filter="url(#shadow)"/>
  <path d="M 173.2 170.0 L 124.6 94.3 A 90.0 90.0 0 0 1 129.7 91.2 Z" fill="#79c0ff" stroke="#0d1117" stroke-width="2" opacity="0.9" filter="url(#shadow)"/>
  <path d="M 173.2 170.0 L 129.7 91.2 A 90.0 90.0 0 0 1 134.8 88.6 Z" fill="#ffa657" stroke="#0d1117" stroke-width="2" opacity="0.9" filter="url(#shadow)"/>
  <path d="M 173.2 170.0 L 134.8 88.6 A 90.0 90.0 0 0 1 138.7 86.9 Z" fill="#ffd33d" stroke="#0d1117" stroke-width="2" opacity="0.9" filter="url(#shadow)"/>
  <path d="M 173.2 170.0 L 138.7 86.9 A 90.0 90.0 0 0 1 142.4 85.4 Z" fill="#9ecbff" stroke="#0d1117" stroke-width="2" opacity="0.9" filter="url(#shadow)"/>
  <path d="M 173.2 170.0 L 142.4 85.4 A 90.0 90.0 0 0 1 146.0 84.2 Z" fill="#bf87ff" stroke="#0d1117" stroke-width="2" opacity="0.9" filter="url(#shadow)"/>
  <path d="M 173.2 170.0 L 146.0 84.2 A 90.0 90.0 0 0 1 149.5 83.2 Z" fill="#ffbe6b" stroke="#0d1117" stroke-width="2" opacity="0.9" filter="url(#shadow)"/>
  <path d="M 173.2 170.0 L 149.5 83.2 A 90.0 90.0 0 0 1 152.8 82.3 Z" fill="#85e89d" stroke="#0d1117" stroke-width="2" opacity="0.9" filter="url(#shadow)"/>
  <path d="M 173.2 170.0 L 152.8 82.3 A 90.0 90.0 0 0 1 155.6 81.8 Z" fill="#ffab70" stroke="#0d1117" stroke-width="2" opacity="0.9" filter="url(#shadow)"/>
  <path d="M 173.2 170.0 L 155.6 81.8 A 90.0 90.0 0 0 1 158.0 81.3 Z" fill="#58a6ff" stroke="#0d1117" stroke-width="2" opacity="0.9" filter="url(#shadow)"/>
  <path d="M 173.2 170.0 L 158.0 81.3 A 90.0 90.0 0 0 1 160.2 81.0 Z" fill="#7c3aed" stroke="#0d1117" stroke-width="2" opacity="0.9" filter="url(#shadow)"/>
  <path d="M 173.2 170.0 L 160.2 81.0 A 90.0 90.0 0 0 1 162.2 80.7 Z" fill="#1f6feb" stroke="#0d1117" stroke-width="2" opacity="0.9" filter="url(#shadow)"/>
  <path d="M 173.2 170.0 L 162.2 80.7 A 90.0 90.0 0 0 1 164.2 80.5 Z" fill="#56d364" stroke="#0d1117" stroke-width="2" opacity="0.9" filter="url(#shadow)"/>
  <path d="M 173.2 170.0 L 164.2 80.5 A 90.0 90.0 0 0 1 165.6 80.3 Z" fill="#ff7b72" stroke="#0d1117" stroke-width="2" opacity="0.9" filter="url(#shadow)"/>
  <path d="M 173.2 170.0 L 165.6 80.3 A 90.0 90.0 0 0 1 166.9 80.2 Z" fill="#a5a5ff" stroke="#0d1117" stroke-width="2" opacity="0.9" filter="url(#shadow)"/>
  <path d="M 173.2 170.0 L 166.9 80.2 A 90.0 90.0 0 0 1 168.2 80.1 Z" fill="#f85149" stroke="#0d1117" stroke-width="2" opacity="0.9" filter="url(#shadow)"/>
  <path d="M 173.2 170.0 L 168.2 80.1 A 90.0 90.0 0 0 1 169.5 80.1 Z" fill="#79c0ff" stroke="#0d1117" stroke-width="2" opacity="0.9" filter="url(#shadow)"/>
  <path d="M 173.2 170.0 L 169.5 80.1 A 90.0 90.0 0 0 1 170.6 80.0 Z" fill="#ffa657" stroke="#0d1117" stroke-width="2" opacity="0.9" filter="url(#shadow)"/>
  <path d="M 173.2 170.0 L 170.6 80.0 A 90.0 90.0 0 0 1 171.6 80.0 Z" fill="#ffd33d" stroke="#0d1117" stroke-width="2" opacity="0.9" filter="url(#shadow)"/>
  <path d="M 173.2 170.0 L 171.6 80.0 A 90.0 90.0 0 0 1 172.3 80.0 Z" fill="#9ecbff" stroke="#0d1117" stroke-width="2" opacity="0.9" filter="url(#shadow)"/>
  <rect x="321" y="57" width="12" height="12" fill="#58a6ff" rx="2"/>
  <text x="339" y="65" font-family="Segoe UI, system-ui, -apple-system, sans-serif" font-size="11" fill="#c9d1d9">JavaScript</text>
  <text x="475" y="65" font-family="Segoe UI, system-ui, -apple-system, sans-serif" font-size="11" fill="#58a6ff" font-weight="600" text-anchor="end">40.7%</text>
  <rect x="321" y="79" width="12" height="12" fill="#7c3aed" rx="2"/>
  <text x="339" y="87" font-family="Segoe UI, system-ui, -apple-system, sans-serif" font-size="11" fill="#c9d1d9">Ruby</text>
  <text x="475" y="87" font-family="Segoe UI, system-ui, -apple-system, sans-serif" font-size="11" fill="#58a6ff" font-weight="600" text-anchor="end">35.0%</text>
  <rect x="321" y="101" width="12" height="12" fill="#1f6feb" rx="2"/>
  <text x="339" y="109" font-family="Segoe UI, system-ui, -apple-system, sans-serif" font-size="11" fill="#c9d1d9">TypeScript</text>
  <text x="475" y="109" font-family="Segoe UI, system-ui, -apple-system, sans-serif" font-size="11" fill="#58a6ff" font-weight="600" text-anchor="end">5.3%</text>
  <rect x="321" y="123" width="12" height="12" fill="#56d364" rx="2"/>
  <text x="339" y="131" font-family="Segoe UI, system-ui, -apple-system, sans-serif" font-size="11" fill="#c9d1d9">Python</text>
  <text x="475" y="131" font-family="Segoe UI, system-ui, -apple-system, sans-serif" font-size="11" fill="#58a6ff" font-weight="600" text-anchor="end">3.3%</text>
  <rect x="321" y="145" width="12" height="12" fill="#ff7b72" rx="2"/>
  <text x="339" y="153" font-family="Segoe UI, system-ui, -apple-system, sans-serif" font-size="11" fill="#c9d1d9">Vue</text>
  <text x="475" y="153" font-family="Segoe UI, system-ui, -apple-system, sans-serif" font-size="11" fill="#58a6ff" font-weight="600" text-anchor="end">3.1%</text>
  <rect x="321" y="167" width="12" height="12" fill="#a5a5ff" rx="2"/>
  <text x="339" y="175" font-family="Segoe UI, system-ui, -apple-system, sans-serif" font-size="11" fill="#c9d1d9">Go</text>
  <text x="475" y="175" font-family="Segoe UI, system-ui, -apple-system, sans-serif" font-size="11" fill="#58a6ff" font-weight="600" text-anchor="end">1.8%</text>
  <rect x="321" y="189" width="12" height="12" fill="#f85149" rx="2"/>
  <text x="339" y="197" font-family="Segoe UI, system-ui, -apple-system, sans-serif" font-size="11" fill="#c9d1d9">Shell</text>
  <text x="475" y="197" font-family="Segoe UI, system-ui, -apple-system, sans-serif" font-size="11" fill="#58a6ff" font-weight="600" text-anchor="end">1.7%</text>
  <rect x="321" y="211" width="12" height="12" fill="#79c0ff" rx="2"/>
  <text x="339" y="219" font-family="Segoe UI, system-ui, -apple-system, sans-serif" font-size="11" fill="#c9d1d9">Elm</text>
  <text x="475" y="219" font-family="Segoe UI, system-ui, -apple-system, sans-serif" font-size="11" fill="#58a6ff" font-weight="600" text-anchor="end">1.0%</text>
  <rect x="321" y="233" width="12" height="12" fill="#ffa657" rx="2"/>
  <text x="339" y="241" font-family="Segoe UI, system-ui, -apple-system, sans-serif" font-size="11" fill="#c9d1d9">Java</text>
  <text x="475" y="241" font-family="Segoe UI, system-ui, -apple-system, sans-serif" font-size="11" fill="#58a6ff" font-weight="600" text-anchor="end">1.0%</text>
  <rect x="321" y="255" width="12" height="12" fill="#ffd33d" rx="2"/>
  <text x="339" y="263" font-family="Segoe UI, system-ui, -apple-system, sans-serif" font-size="11" fill="#c9d1d9">C#</text>
  <text x="475" y="263" font-family="Segoe UI, system-ui, -apple-system, sans-serif" font-size="11" fill="#58a6ff" font-weight="600" text-anchor="end">0.7%</text>
  <rect x="321" y="277" width="12" height="12" fill="#9ecbff" rx="2"/>
  <text x="339" y="285" font-family="Segoe UI, system-ui, -apple-system, sans-serif" font-size="11" fill="#c9d1d9">C++</text>
  <text x="475" y="285" font-family="Segoe UI, system-ui, -apple-system, sans-serif" font-size="11" fill="#58a6ff" font-weight="600" text-anchor="end">0.7%</text>
  <rect x="321" y="299" width="12" height="12" fill="#bf87ff" rx="2"/>
  <text x="339" y="307" font-family="Segoe UI, system-ui, -apple-system, sans-serif" font-size="11" fill="#c9d1d9">Swift</text>
  <text x="475" y="307" font-family="Segoe UI, system-ui, -apple-system, sans-serif" font-size="11" fill="#58a6ff" font-weight="600" text-anchor="end">0.7%</text>
  <rect x="321" y="321" width="12" height="12" fill="#ffbe6b" rx="2"/>
  <text x="339" y="329" font-family="Segoe UI, system-ui, -apple-system, sans-serif" font-size="11" fill="#c9d1d9">Dart</text>
  <text x="475" y="329" font-family="Segoe UI, system-ui, -apple-system, sans-serif" font-size="11" fill="#58a6ff" font-weight="600" text-anchor="end">0.6%</text>
  <rect x="321" y="343" width="12" height="12" fill="#85e89d" rx="2"/>
  <text x="339" y="351" font-family="Segoe UI, system-ui, -apple-system, sans-serif" font-size="11" fill="#c9d1d9">SCSS</text>
  <text x="475" y="351" font-family="Segoe UI, system-ui, -apple-system, sans-serif" font-size="11" fill="#58a6ff" font-weight="600" text-anchor="end">0.6%</text>
  <rect x="321" y="365" width="12" height="12" fill="#ffab70" rx="2"/>
  <text x="339" y="373" font-family="Segoe UI, system-ui, -apple-system, sans-serif" font-size="11" fill="#c9d1d9">Haml</text>
  <text x="475" y="373" font-family="Segoe UI, system-ui, -apple-system, sans-serif" font-size="11" fill="#58a6ff" font-weight="600" text-anchor="end">0.5%</text>
  <text x="321" y="395" font-family="Segoe UI, system-ui, -apple-system, sans-serif" font-size="10" fill="#c9d1d9" font-style="italic">+22 more languages</text>
</svg>