<?xml version="1.0" encoding="UTF-8"?>
<svg xmlns="http://www.w3.org/2000/svg" width="495" height="320" viewBox="0 0 495 320">
  <defs>
    <filter id="shadow">
      <feGaussianBlur in="SourceAlpha" stdDeviation="2"/>
      <feOffset dx="0" dy="2" result="offsetblur"/>
      <feComponentTransfer>
        <feFuncA type="linear" slope="0.3"/>
      </feComponentTransfer>
      <feMerge>
        <feMergeNode/>
        <feMergeNode in="SourceGraphic"/>
      </feMerge>
    </filter>
  </defs>

  <rect width="495" height="320" fill="#0d1117" rx="10" stroke="#30363d" stroke-width="1"/>
  <text x="247" y="32" font-family="Segoe UI, system-ui, -apple-system, sans-serif" font-size="20" font-weight="700" fill="#58a6ff" text-anchor="middle" filter="url(#shadow)">🗂️ Language Distribution</text>
  <path d="M 371.2 170.0 L 371.2 80.0 A 90.0 90.0 0 0 1 392.2 257.5 Z" fill="#58a6ff" stroke="#0d1117" stroke-width="2" opacity="0.9" filter="url(#shadow)"/>
  <path d="M 371.2 170.0 L 392.2 257.5 A 90.0 90.0 0 0 1 281.3 170.9 Z" fill="#7c3aed" stroke="#0d1117" stroke-width="2" opacity="0.9" filter="url(#shadow)"/>
  <path d="M 371.2 170.0 L 281.3 170.9 A 90.0 90.0 0 0 1 288.0 135.9 Z" fill="#1f6feb" stroke="#0d1117" stroke-width="2" opacity="0.9" filter="url(#shadow)"/>
  <path d="M 371.2 170.0 L 288.0 135.9 A 90.0 90.0 0 0 1 294.9 122.4 Z" fill="#56d364" stroke="#0d1117" stroke-width="2" opacity="0.9" filter="url(#shadow)"/>
  <path d="M 371.2 170.0 L 294.9 122.4 A 90.0 90.0 0 0 1 303.3 110.9 Z" fill="#ff7b72" stroke="#0d1117" stroke-width="2" opacity="0.9" filter="url(#shadow)"/>
  <path d="M 371.2 170.0 L 303.3 110.9 A 90.0 90.0 0 0 1 310.8 103.3 Z" fill="#a5a5ff" stroke="#0d1117" stroke-width="2" opacity="0.9" filter="url(#shadow)"/>
  <path d="M 371.2 170.0 L 310.8 103.3 A 90.0 90.0 0 0 1 317.1 98.1 Z" fill="#f85149" stroke="#0d1117" stroke-width="2" opacity="0.9" filter="url(#shadow)"/>
  <path d="M 371.2 170.0 L 317.1 98.1 A 90.0 90.0 0 0 1 323.8 93.5 Z" fill="#79c0ff" stroke="#0d1117" stroke-width="2" opacity="0.9" filter="url(#shadow)"/>
  <path d="M 371.2 170.0 L 323.8 93.5 A 90.0 90.0 0 0 1 328.0 91.1 Z" fill="#ffa657" stroke="#0d1117" stroke-width="2" opacity="0.9" filter="url(#shadow)"/>
  <path d="M 371.2 170.0 L 328.0 91.1 A 90.0 90.0 0 0 1 332.3 88.9 Z" fill="#ffd33d" stroke="#0d1117" stroke-width="2" opacity="0.9" filter="url(#shadow)"/>
  <path d="M 371.2 170.0 L 332.3 88.9 A 90.0 90.0 0 0 1 336.6 86.9 Z" fill="#9ecbff" stroke="#0d1117" stroke-width="2" opacity="0.9" filter="url(#shadow)"/>
  <path d="M 371.2 170.0 L 336.6 86.9 A 90.0 90.0 0 0 1 340.3 85.5 Z" fill="#bf87ff" stroke="#0d1117" stroke-width="2" opacity="0.9" filter="url(#shadow)"/>
  <path d="M 371.2 170.0 L 340.3 85.5 A 90.0 90.0 0 0 1 344.0 84.2 Z" fill="#ffbe6b" stroke="#0d1117" stroke-width="2" opacity="0.9" filter="url(#shadow)"/>
  <path d="M 371.2 170.0 L 344.0 84.2 A 90.0 90.0 0 0 1 347.3 83.2 Z" fill="#85e89d" stroke="#0d1117" stroke-width="2" opacity="0.9" filter="url(#shadow)"/>
  <path d="M 371.2 170.0 L 347.3 83.2 A 90.0 90.0 0 0 1 350.6 82.4 Z" fill="#ffab70" stroke="#0d1117" stroke-width="2" opacity="0.9" filter="url(#shadow)"/>
  <path d="M 371.2 170.0 L 350.6 82.4 A 90.0 90.0 0 0 1 353.4 81.8 Z" fill="#58a6ff" stroke="#0d1117" stroke-width="2" opacity="0.9" filter="url(#shadow)"/>
  <path d="M 371.2 170.0 L 353.4 81.8 A 90.0 90.0 0 0 1 356.2 81.3 Z" fill="#7c3aed" stroke="#0d1117" stroke-width="2" opacity="0.9" filter="url(#shadow)"/>
  <path d="M 371.2 170.0 L 356.2 81.3 A 90.0 90.0 0 0 1 358.5 80.9 Z" fill="#1f6feb" stroke="#0d1117" stroke-width="2" opacity="0.9" filter="url(#shadow)"/>
  <path d="M 371.2 170.0 L 358.5 80.9 A 90.0 90.0 0 0 1 360.5 80.6 Z" fill="#56d364" stroke="#0d1117" stroke-width="2" opacity="0.9" filter="url(#shadow)"/>
  <path d="M 371.2 170.0 L 360.5 80.6 A 90.0 90.0 0 0 1 362.3 80.4 Z" fill="#ff7b72" stroke="#0d1117" stroke-width="2" opacity="0.9" filter="url(#shadow)"/>
  <path d="M 371.2 170.0 L 362.3 80.4 A 90.0 90.0 0 0 1 363.9 80.3 Z" fill="#a5a5ff" stroke="#0d1117" stroke-width="2" opacity="0.9" filter="url(#shadow)"/>
  <path d="M 371.2 170.0 L 363.9 80.3 A 90.0 90.0 0 0 1 365.0 80.2 Z" fill="#f85149" stroke="#0d1117" stroke-width="2" opacity="0.9" filter="url(#shadow)"/>
  <path d="M 371.2 170.0 L 365.0 80.2 A 90.0 90.0 0 0 1 366.1 80.1 Z" fill="#79c0ff" stroke="#0d1117" stroke-width="2" opacity="0.9" filter="url(#shadow)"/>
  <path d="M 371.2 170.0 L 366.1 80.1 A 90.0 90.0 0 0 1 367.2 80.1 Z" fill="#ffa657" stroke="#0d1117" stroke-width="2" opacity="0.9" filter="url(#shadow)"/>
  <path d="M 371.2 170.0 L 367.2 80.1 A 90.0 90.0 0 0 1 368.2 80.1 Z" fill="#ffd33d" stroke="#0d1117" stroke-width="2" opacity="0.9" filter="url(#shadow)"/>
  <path d="M 371.2 170.0 L 368.2 80.1 A 90.0 90.0 0 0 1 369.2 80.0 Z" fill="#9ecbff" stroke="#0d1117" stroke-width="2" opacity="0.9" filter="url(#shadow)"/>
  <path d="M 371.2 170.0 L 369.2 80.0 A 90.0 90.0 0 0 1 370.0 80.0 Z" fill="#bf87ff" stroke="#0d1117" stroke-width="2" opacity="0.9" filter="url(#shadow)"/>
  <rect x="30" y="57" width="12" height="12" fill="#58a6ff" rx="2"/>
  <text x="48" y="65" font-family="Segoe UI, system-ui, -apple-system, sans-serif" font-size="11" fill="#c9d1d9">JavaScript</text>
  <text x="242" y="65" font-family="Segoe UI, system-ui, -apple-system, sans-serif" font-size="11" fill="#58a6ff" font-weight="600" text-anchor="end">46.3%</text>
  <rect x="30" y="79" width="12" height="12" fill="#7c3aed" rx="2"/>
  <text x="48" y="87" font-family="Segoe UI, system-ui, -apple-system, sans-serif" font-size="11" fill="#c9d1d9">Ruby</text>
  <text x="242" y="87" font-family="Segoe UI, system-ui, -apple-system, sans-serif" font-size="11" fill="#58a6ff" font-weight="600" text-anchor="end">28.6%</text>
  <rect x="30" y="101" width="12" height="12" fill="#1f6feb" rx="2"/>
  <text x="48" y="109" font-family="Segoe UI, system-ui, -apple-system, sans-serif" font-size="11" fill="#c9d1d9">TypeScript</text>
  <text x="242" y="109" font-family="Segoe UI, system-ui, -apple-system, sans-serif" font-size="11" fill="#58a6ff" font-weight="600" text-anchor="end">6.4%</text>
  <rect x="30" y="123" width="12" height="12" fill="#56d364" rx="2"/>
  <text x="48" y="131" font-family="Segoe UI, system-ui, -apple-system, sans-serif" font-size="11" fill="#c9d1d9">Python</text>
  <text x="242" y="131" font-family="Segoe UI, system-ui, -apple-system, sans-serif" font-size="11" fill="#58a6ff" font-weight="600" text-anchor="end">2.7%</text>
  <rect x="30" y="145" width="12" height="12" fill="#ff7b72" rx="2"/>
  <text x="48" y="153" font-family="Segoe UI, system-ui, -apple-system, sans-serif" font-size="11" fill="#c9d1d9">Vue</text>
  <text x="242" y="153" font-family="Segoe UI, system-ui, -apple-system, sans-serif" font-size="11" fill="#58a6ff" font-weight="600" text-anchor="end">2.5%</text>
  <rect x="30" y="167" width="12" height="12" fill="#a5a5ff" rx="2"/>
  <text x="48" y="175" font-family="Segoe UI, system-ui, -apple-system, sans-serif" font-size="11" fill="#c9d1d9">Assembly</text>
  <text x="242" y="175" font-family="Segoe UI, system-ui, -apple-system, sans-serif" font-size="11" fill="#58a6ff" font-weight="600" text-anchor="end">1.9%</text>
  <rect x="30" y="189" width="12" height="12" fill="#f85149" rx="2"/>
  <text x="48" y="197" font-family="Segoe UI, system-ui, -apple-system, sans-serif" font-size="11" fill="#c9d1d9">Go</text>
  <text x="242" y="197" font-family="Segoe UI, system-ui, -apple-system, sans-serif" font-size="11" fill="#58a6ff" font-weight="600" text-anchor="end">1.4%</text>
  <rect x="30" y="211" width="12" height="12" fill="#79c0ff" rx="2"/>
  <text x="48" y="219" font-family="Segoe UI, system-ui, -apple-system, sans-serif" font-size="11" fill="#c9d1d9">Shell</text>
  <text x="242" y="219" font-family="Segoe UI, system-ui, -apple-system, sans-serif" font-size="11" fill="#58a6ff" font-weight="600" text-anchor="end">1.4%</text>
  <rect x="30" y="233" width="12" height="12" fill="#ffa657" rx="2"/>
  <text x="48" y="241" font-family="Segoe UI, system-ui, -apple-system, sans-serif" font-size="11" fill="#c9d1d9">Elm</text>
  <text x="242" y="241" font-family="Segoe UI, system-ui, -apple-system, sans-serif" font-size="11" fill="#58a6ff" font-weight="600" text-anchor="end">0.9%</text>
  <rect x="30" y="255" width="12" height="12" fill="#ffd33d" rx="2"/>
  <text x="48" y="263" font-family="Segoe UI, system-ui, -apple-system, sans-serif" font-size="11" fill="#c9d1d9">Lua</text>
  <text x="242" y="263" font-family="Segoe UI, system-ui, -apple-system, sans-serif" font-size="11" fill="#58a6ff" font-weight="600" text-anchor="end">0.9%</text>
  <rect x="30" y="277" width="12" height="12" fill="#9ecbff" rx="2"/>
  <text x="48" y="285" font-family="Segoe UI, system-ui, -apple-system, sans-serif" font-size="11" fill="#c9d1d9">Java</text>
  <text x="242" y="285" font-family="Segoe UI, system-ui, -apple-system, sans-serif" font-size="11" fill="#58a6ff" font-weight="600" text-anchor="end">0.8%</text>
  <rect x="30" y="299" width="12" height="12" fill="#bf87ff" rx="2"/>
  <text x="48" y="307" font-family="Segoe UI, system-ui, -apple-system, sans-serif" font-size="11" fill="#c9d1d9">Scilab</text>
  <text x="242" y="307" font-family="Segoe UI, system-ui, -apple-system, sans-serif" font-size="11" fill="#58a6ff" font-weight="600" text-anchor="end">0.7%</text>
  <rect x="30" y="321" width="12" height="12" fill="#ffbe6b" rx="2"/>
  <text x="48" y="329" font-family="Segoe UI, system-ui, -apple-system, sans-serif" font-size="11" fill="#c9d1d9">Swift</text>
  <text x="242" y="329" font-family="Segoe UI, system-ui, -apple-system, sans-serif" font-size="11" fill="#58a6ff" font-weight="600" text-anchor="end">0.7%</text>
  <rect x="30" y="343" width="12" height="12" fill="#85e89d" rx="2"/>
  <text x="48" y="351" font-family="Segoe UI, system-ui, -apple-system, sans-serif" font-size="11" fill="#c9d1d9">C#</text>
  <text x="242" y="351" font-family="Segoe UI, system-ui, -apple-system, sans-serif" font-size="11" fill="#58a6ff" font-weight="600" text-anchor="end">0.6%</text>
  <rect x="30" y="365" width="12" height="12" fill="#ffab70" rx="2"/>
  <text x="48" y="373" font-family="Segoe UI, system-ui, -apple-system, sans-serif" font-size="11" fill="#c9d1d9">C++</text>
  <text x="242" y="373" font-family="Segoe UI, system-ui, -apple-system, sans-serif" font-size="11" fill="#58a6ff" font-weight="600" text-anchor="end">0.6%</text>
  <text x="30" y="395" font-family="Segoe UI, system-ui, -apple-system, sans-serif" font-size="10" fill="#c9d1d9" font-style="italic">+24 more languages</text>
</svg>